  0
SECTION
  2
HEADER
  9
$ACADVER
  1
AC1012
  9
$DWGCODEPAGE
  3
ansi_932
  9
$INSBASE
 10
0.0
 20
0.0
 30
0.0
  9
$EXTMIN
 10
1.000000000000000E+20
 20
1.000000000000000E+20
 30
1.000000000000000E+20
  9
$EXTMAX
 10
-1.000000000000000E+20
 20
-1.000000000000000E+20
 30
-1.000000000000000E+20
  9
$LIMMIN
 10
0.0
 20
0.0
  9
$LIMMAX
 10
12.0
 20
9.0
  9
$ORTHOMODE
 70
     0
  9
$REGENMODE
 70
     1
  9
$FILLMODE
 70
     1
  9
$QTEXTMODE
 70
     0
  9
$MIRRTEXT
 70
     1
  9
$DRAGMODE
 70
     2
  9
$LTSCALE
 40
1.0
  9
$OSMODE
 70
    37
  9
$ATTMODE
 70
     1
  9
$TEXTSIZE
 40
0.2
  9
$TRACEWID
 40
0.05
  9
$TEXTSTYLE
  7
STANDARD
  9
$CLAYER
  8
0
  9
$CELTYPE
  6
BYLAYER
  9
$CECOLOR
 62
   256
  9
$CELTSCALE
 40
1.0
  9
$DELOBJ
 70
     1
  9
$DISPSILH
 70
     0
  9
$DIMSCALE
 40
1.0
  9
$DIMASZ
 40
0.18
  9
$DIMEXO
 40
0.0625
  9
$DIMDLI
 40
0.38
  9
$DIMRND
 40
0.0
  9
$DIMDLE
 40
0.0
  9
$DIMEXE
 40
0.18
  9
$DIMTP
 40
0.0
  9
$DIMTM
 40
0.0
  9
$DIMTXT
 40
0.18
  9
$DIMCEN
 40
0.09
  9
$DIMTSZ
 40
0.0
  9
$DIMTOL
 70
     0
  9
$DIMLIM
 70
     0
  9
$DIMTIH
 70
     1
  9
$DIMTOH
 70
     1
  9
$DIMSE1
 70
     0
  9
$DIMSE2
 70
     0
  9
$DIMTAD
 70
     0
  9
$DIMZIN
 70
     0
  9
$DIMBLK
  1

  9
$DIMASO
 70
     1
  9
$DIMSHO
 70
     1
  9
$DIMPOST
  1

  9
$DIMAPOST
  1

  9
$DIMALT
 70
     0
  9
$DIMALTD
 70
     2
  9
$DIMALTF
 40
25.4
  9
$DIMLFAC
 40
1.0
  9
$DIMTOFL
 70
     0
  9
$DIMTVP
 40
0.0
  9
$DIMTIX
 70
     0
  9
$DIMSOXD
 70
     0
  9
$DIMSAH
 70
     0
  9
$DIMBLK1
  1

  9
$DIMBLK2
  1

  9
$DIMSTYLE
  2
STANDARD
  9
$DIMCLRD
 70
     0
  9
$DIMCLRE
 70
     0
  9
$DIMCLRT
 70
     0
  9
$DIMTFAC
 40
1.0
  9
$DIMGAP
 40
0.09
  9
$DIMJUST
 70
     0
  9
$DIMSD1
 70
     0
  9
$DIMSD2
 70
     0
  9
$DIMTOLJ
 70
     1
  9
$DIMTZIN
 70
     0
  9
$DIMALTZ
 70
     0
  9
$DIMALTTZ
 70
     0
  9
$DIMFIT
 70
     3
  9
$DIMUPT
 70
     0
  9
$DIMUNIT
 70
     2
  9
$DIMDEC
 70
     4
  9
$DIMTDEC
 70
     4
  9
$DIMALTU
 70
     2
  9
$DIMALTTD
 70
     2
  9
$DIMTXSTY
  7
STANDARD
  9
$DIMAUNIT
 70
     0
  9
$LUNITS
 70
     2
  9
$LUPREC
 70
     4
  9
$SKETCHINC
 40
0.1
  9
$FILLETRAD
 40
0.5
  9
$AUNITS
 70
     0
  9
$AUPREC
 70
     0
  9
$MENU
  1
.
  9
$ELEVATION
 40
0.0
  9
$PELEVATION
 40
0.0
  9
$THICKNESS
 40
0.0
  9
$LIMCHECK
 70
     0
  9
$CHAMFERA
 40
0.5
  9
$CHAMFERB
 40
0.5
  9
$CHAMFERC
 40
1.0
  9
$CHAMFERD
 40
0.0
  9
$SKPOLY
 70
     0
  9
$TDCREATE
 40
2457143.712337963
  9
$TDUPDATE
 40
2457143.712337974
  9
$TDINDWG
 40
0.0000000116
  9
$TDUSRTIMER
 40
0.0000000116
  9
$USRTIMER
 70
     1
  9
$ANGBASE
 50
0.0
  9
$ANGDIR
 70
     0
  9
$PDMODE
 70
     0
  9
$PDSIZE
 40
0.0
  9
$PLINEWID
 40
0.0
  9
$COORDS
 70
     1
  9
$SPLFRAME
 70
     0
  9
$SPLINETYPE
 70
     6
  9
$SPLINESEGS
 70
     8
  9
$ATTDIA
 70
     0
  9
$ATTREQ
 70
     1
  9
$HANDLING
 70
     1
  9
$HANDSEED
  5
13C
  9
$SURFTAB1
 70
     6
  9
$SURFTAB2
 70
     6
  9
$SURFTYPE
 70
     6
  9
$SURFU
 70
     6
  9
$SURFV
 70
     6
  9
$UCSNAME
  2

  9
$UCSORG
 10
0.0
 20
0.0
 30
0.0
  9
$UCSXDIR
 10
1.0
 20
0.0
 30
0.0
  9
$UCSYDIR
 10
0.0
 20
1.0
 30
0.0
  9
$PUCSNAME
  2

  9
$PUCSORG
 10
0.0
 20
0.0
 30
0.0
  9
$PUCSXDIR
 10
1.0
 20
0.0
 30
0.0
  9
$PUCSYDIR
 10
0.0
 20
1.0
 30
0.0
  9
$USERI1
 70
     0
  9
$USERI2
 70
     0
  9
$USERI3
 70
     0
  9
$USERI4
 70
     0
  9
$USERI5
 70
     0
  9
$USERR1
 40
0.0
  9
$USERR2
 40
0.0
  9
$USERR3
 40
0.0
  9
$USERR4
 40
0.0
  9
$USERR5
 40
0.0
  9
$WORLDVIEW
 70
     1
  9
$SHADEDGE
 70
     3
  9
$SHADEDIF
 70
    70
  9
$TILEMODE
 70
     1
  9
$MAXACTVP
 70
    64
  9
$PINSBASE
 10
0.0
 20
0.0
 30
0.0
  9
$PLIMCHECK
 70
     0
  9
$PEXTMIN
 10
1.000000000000000E+20
 20
1.000000000000000E+20
 30
1.000000000000000E+20
  9
$PEXTMAX
 10
-1.000000000000000E+20
 20
-1.000000000000000E+20
 30
-1.000000000000000E+20
  9
$PLIMMIN
 10
0.0
 20
0.0
  9
$PLIMMAX
 10
12.0
 20
9.0
  9
$UNITMODE
 70
     0
  9
$VISRETAIN
 70
     1
  9
$PLINEGEN
 70
     0
  9
$PSLTSCALE
 70
     1
  9
$TREEDEPTH
 70
  3020
  9
$PICKSTYLE
 70
     1
  9
$CMLSTYLE
  2
STANDARD
  9
$CMLJUST
 70
     0
  9
$CMLSCALE
 40
1.0
  9
$SAVEIMAGES
 70
     1
  0
ENDSEC
  0
SECTION
  2
CLASSES
  0
CLASS
  1
ACDBDICTIONARYWDFLT
  2
AcDbDictionaryWithDefault
  3
ObjectDBX Classes
 90
    32768
280
     0
281
     0
  0
CLASS
  1
VISUALSTYLE
  2
AcDbVisualStyle
  3
ObjectDBX Classes
 90
     4095
280
     0
281
     0
  0
CLASS
  1
XRECORD
  2
AcDbXrecord
  3
AutoCAD 2000
 90
    32768
280
     0
281
     0
  0
CLASS
  1
LWPOLYLINE
  2
AcDbPolyline
  3
AutoCAD 2000
 90
    32768
280
     0
281
     1
  0
CLASS
  1
HATCH
  2
AcDbHatch
  3
AutoCAD 2000
 90
    32768
280
     0
281
     1
  0
CLASS
  1
ACDBPLACEHOLDER
  2
AcDbPlaceHolder
  3
ObjectDBX Classes
 90
        0
280
     0
281
     0
  0
CLASS
  1
LAYOUT
  2
AcDbLayout
  3
ObjectDBX Classes
 90
        0
280
     0
281
     0
  0
ENDSEC
  0
SECTION
  2
TABLES
  0
TABLE
  2
VPORT
  5
8
330
0
100
AcDbSymbolTable
 70
     1
  0
VPORT
  5
29
330
8
100
AcDbSymbolTableRecord
100
AcDbViewportTableRecord
  2
*ACTIVE
 70
     0
 10
0.0
 20
0.0
 11
1.0
 21
1.0
 12
0.0
 22
0.0
 13
0.0
 23
0.0
 14
0.5
 24
0.5
 15
0.5
 25
0.5
 16
0.0
 26
0.0
 36
1.0
 17
7.5
 27
-7.5
 37
0.0
 40
15.0
 41
1.0
 42
50.0
 43
0.0
 44
0.0
 50
0.0
 51
0.0
 71
     0
 72
   100
 73
     1
 74
     3
 75
     0
 76
     0
 77
     0
 78
     0
  0
ENDTAB
  0
TABLE
  2
LTYPE
  5
5
330
0
100
AcDbSymbolTable
 70
     1
  0
LTYPE
  5
14
330
5
100
AcDbSymbolTableRecord
100
AcDbLinetypeTableRecord
  2
BYBLOCK
 70
     0
  3

 72
    65
 73
     0
 40
0.0
  0
LTYPE
  5
15
330
5
100
AcDbSymbolTableRecord
100
AcDbLinetypeTableRecord
  2
BYLAYER
 70
     0
  3

 72
    65
 73
     0
 40
0.0
  0
LTYPE
  5
16
330
5
100
AcDbSymbolTableRecord
100
AcDbLinetypeTableRecord
  2
CONTINUOUS
 70
     0
  3
Solid line
 72
    65
 73
     0
 40
0.0
  0
ENDTAB
  0
TABLE
  2
LAYER
  5
2
330
0
100
AcDbSymbolTable
 70
     2
  0
LAYER
  5
10
330
2
100
AcDbSymbolTableRecord
100
AcDbLayerTableRecord
  2
0
 70
     0
 62
     7
  6
CONTINUOUS
  0
LAYER
  5
3B
330
2
100
AcDbSymbolTableRecord
100
AcDbLayerTableRecord
  2
LAYER_1
 70
     0
 62
     7
  6
CONTINUOUS
  0
ENDTAB
  0
TABLE
  2
STYLE
  5
3
330
0
100
AcDbSymbolTable
 70
     1
  0
STYLE
  5
11
330
3
100
AcDbSymbolTableRecord
100
AcDbTextStyleTableRecord
  2
STANDARD
 70
     0
 40
0.0
 41
1.0
 50
0.0
 71
     0
 42
0.2
  3
txt
  4

  0
ENDTAB
  0
TABLE
  2
VIEW
  5
6
330
0
100
AcDbSymbolTable
 70
     0
  0
ENDTAB
  0
TABLE
  2
UCS
  5
7
330
0
100
AcDbSymbolTable
 70
     0
  0
ENDTAB
  0
TABLE
  2
APPID
  5
9
330
0
100
AcDbSymbolTable
 70
     1
  0
APPID
  5
12
330
9
100
AcDbSymbolTableRecord
100
AcDbRegAppTableRecord
  2
ACAD
 70
     0
  0
ENDTAB
  0
TABLE
  2
DIMSTYLE
  5
A
330
0
100
AcDbSymbolTable
 70
     1
  0
DIMSTYLE
105
27
330
A
100
AcDbSymbolTableRecord
100
AcDbDimStyleTableRecord
  2
STANDARD
 70
     0
  3

  4

  5

  6

  7

 40
1.0
 41
0.18
 42
0.0625
 43
0.38
 44
0.18
 45
0.0
 46
0.0
 47
0.0
 48
0.0
140
0.18
141
0.09
142
0.0
143
25.4
144
1.0
145
0.0
146
1.0
147
0.09
 71
     0
 72
     0
 73
     1
 74
     1
 75
     0
 76
     0
 77
     0
 78
     0
170
     0
171
     2
172
     0
173
     0
174
     0
175
     0
176
     0
177
     0
178
     0
270
     2
271
     4
272
     4
273
     2
274
     2
340
11
275
     0
280
     0
281
     0
282
     0
283
     1
284
     0
285
     0
286
     0
287
     3
288
     0
  0
ENDTAB
  0
TABLE
  2
BLOCK_RECORD
  5
1
330
0
100
AcDbSymbolTable
 70
    13
  0
BLOCK_RECORD
  5
1F
330
1
100
AcDbSymbolTableRecord
100
AcDbBlockTableRecord
  2
*MODEL_SPACE
  0
BLOCK_RECORD
  5
1B
330
1
100
AcDbSymbolTableRecord
100
AcDbBlockTableRecord
  2
*PAPER_SPACE
  0
BLOCK_RECORD
  5
3C
330
1
100
AcDbSymbolTableRecord
100
AcDbBlockTableRecord
  2
BLOCK_2
  0
BLOCK_RECORD
  5
41
330
1
100
AcDbSymbolTableRecord
100
AcDbBlockTableRecord
  2
BLOCK_3
  0
BLOCK_RECORD
  5
49
330
1
100
AcDbSymbolTableRecord
100
AcDbBlockTableRecord
  2
BLOCK_4
  0
BLOCK_RECORD
  5
51
330
1
100
AcDbSymbolTableRecord
100
AcDbBlockTableRecord
  2
BLOCK_5
  0
BLOCK_RECORD
  5
59
330
1
100
AcDbSymbolTableRecord
100
AcDbBlockTableRecord
  2
BLOCK_6
  0
BLOCK_RECORD
  5
61
330
1
100
AcDbSymbolTableRecord
100
AcDbBlockTableRecord
  2
BLOCK_7
  0
BLOCK_RECORD
  5
67
330
1
100
AcDbSymbolTableRecord
100
AcDbBlockTableRecord
  2
BLOCK_8
  0
BLOCK_RECORD
  5
6D
330
1
100
AcDbSymbolTableRecord
100
AcDbBlockTableRecord
  2
BLOCK_9
  0
BLOCK_RECORD
  5
73
330
1
100
AcDbSymbolTableRecord
100
AcDbBlockTableRecord
  2
BLOCK_10
  0
BLOCK_RECORD
  5
79
330
1
100
AcDbSymbolTableRecord
100
AcDbBlockTableRecord
  2
*U10
  0
BLOCK_RECORD
  5
BA
330
1
100
AcDbSymbolTableRecord
100
AcDbBlockTableRecord
  2
*U11
  0
BLOCK_RECORD
  5
FB
330
1
100
AcDbSymbolTableRecord
100
AcDbBlockTableRecord
  2
*U12
  0
ENDTAB
  0
ENDSEC
  0
SECTION
  2
BLOCKS
  0
BLOCK
  5
20
330
1F
100
AcDbEntity
  8
0
100
AcDbBlockBegin
  2
*MODEL_SPACE
 70
     0
 71
     0
 10
0.0
 20
0.0
 30
0.0
  3
*MODEL_SPACE
  1

  0
ENDBLK
  5
21
330
1F
100
AcDbEntity
  8
0
100
AcDbBlockEnd
  0
BLOCK
  5
1C
330
1B
100
AcDbEntity
 67
     1
  8
0
100
AcDbBlockBegin
  2
*PAPER_SPACE
 70
     0
 71
     0
 10
0.0
 20
0.0
 30
0.0
  3
*PAPER_SPACE
  1

  0
ENDBLK
  5
1D
330
1B
100
AcDbEntity
 67
     1
  8
0
100
AcDbBlockEnd
  0
BLOCK
  5
3E
330
3C
100
AcDbEntity
  8
0
100
AcDbBlockBegin
  2
BLOCK_2
 70
     0
 71
     0
 10
0.0
 20
0.0
 30
0.0
  3
BLOCK_2
  1

  0
SPLINE
  5
40
330
3C
100
AcDbEntity
  8
LAYER_1
 62
    83
100
AcDbSpline
210
0.0
220
0.0
230
1.0
 70
    11
 71
     3
 72
    20
 73
    16
 74
     0
 42
0.0000000001
 43
0.0000000001
 40
0.0
 40
0.0
 40
0.0
 40
0.0
 40
1.0
 40
1.0
 40
1.0
 40
2.0
 40
2.0
 40
2.0
 40
3.0
 40
3.0
 40
3.0
 40
4.0
 40
4.0
 40
4.0
 40
5.0
 40
5.0
 40
5.0
 40
5.0
 10
8.135565863715277
 20
-7.5
 30
0.0
 10
8.135565863715277
 20
-7.148980034722221
 30
0.0
 10
7.851006401909721
 20
-6.864427354600694
 30
0.0
 10
7.5
 20
-6.864427354600694
 30
0.0
 10
7.14898681640625
 20
-6.864427354600694
 30
0.0
 10
6.864427354600694
 20
-7.148980034722221
 30
0.0
 10
6.864427354600694
 20
-7.5
 30
0.0
 10
6.864427354600694
 20
-7.851006401909721
 30
0.0
 10
7.14898681640625
 20
-8.135565863715277
 30
0.0
 10
7.5
 20
-8.135565863715277
 30
0.0
 10
7.851006401909721
 20
-8.135565863715277
 30
0.0
 10
8.135565863715277
 20
-7.851006401909721
 30
0.0
 10
8.135565863715277
 20
-7.5
 30
0.0
 10
8.135565863715277
 20
-7.5
 30
0.0
 10
8.135565863715277
 20
-7.5
 30
0.0
 10
8.135565863715277
 20
-7.5
 30
0.0
  0
ENDBLK
  5
3F
330
3C
100
AcDbEntity
  8
0
100
AcDbBlockEnd
  0
BLOCK
  5
43
330
41
100
AcDbEntity
  8
0
100
AcDbBlockBegin
  2
BLOCK_3
 70
     0
 71
     0
 10
0.0
 20
0.0
 30
0.0
  3
BLOCK_3
  1

  0
POLYLINE
  5
45
330
41
100
AcDbEntity
  8
LAYER_1
 62
    83
100
AcDb2dPolyline
 66
     1
 10
0.0
 20
0.0
 30
0.0
  0
VERTEX
  5
46
330
45
100
AcDbEntity
  8
LAYER_1
 62
    83
100
AcDbVertex
100
AcDb2dVertex
 10
7.5
 20
-6.864427354600694
 30
0.0
  0
VERTEX
  5
47
330
45
100
AcDbEntity
  8
LAYER_1
 62
    83
100
AcDbVertex
100
AcDb2dVertex
 10
7.5
 20
-8.135565863715277
 30
0.0
  0
SEQEND
  5
48
330
45
100
AcDbEntity
  8
LAYER_1
  0
ENDBLK
  5
44
330
41
100
AcDbEntity
  8
0
100
AcDbBlockEnd
  0
BLOCK
  5
4B
330
49
100
AcDbEntity
  8
0
100
AcDbBlockBegin
  2
BLOCK_4
 70
     0
 71
     0
 10
0.0
 20
0.0
 30
0.0
  3
BLOCK_4
  1

  0
POLYLINE
  5
4D
330
49
100
AcDbEntity
  8
LAYER_1
 62
    83
100
AcDb2dPolyline
 66
     1
 10
0.0
 20
0.0
 30
0.0
  0
VERTEX
  5
4E
330
4D
100
AcDbEntity
  8
LAYER_1
 62
    83
100
AcDbVertex
100
AcDb2dVertex
 10
6.864427354600694
 20
-7.5
 30
0.0
  0
VERTEX
  5
4F
330
4D
100
AcDbEntity
  8
LAYER_1
 62
    83
100
AcDbVertex
100
AcDb2dVertex
 10
8.135565863715277
 20
-7.5
 30
0.0
  0
SEQEND
  5
50
330
4D
100
AcDbEntity
  8
LAYER_1
  0
ENDBLK
  5
4C
330
49
100
AcDbEntity
  8
0
100
AcDbBlockEnd
  0
BLOCK
  5
53
330
51
100
AcDbEntity
  8
0
100
AcDbBlockBegin
  2
BLOCK_5
 70
     0
 71
     0
 10
0.0
 20
0.0
 30
0.0
  3
BLOCK_5
  1

  0
POLYLINE
  5
55
330
51
100
AcDbEntity
  8
LAYER_1
 62
    83
100
AcDb2dPolyline
 66
     1
 10
0.0
 20
0.0
 30
0.0
  0
VERTEX
  5
56
330
55
100
AcDbEntity
  8
LAYER_1
 62
    83
100
AcDbVertex
100
AcDb2dVertex
 10
7.050584581163194
 20
-7.050577799479166
 30
0.0
  0
VERTEX
  5
57
330
55
100
AcDbEntity
  8
LAYER_1
 62
    83
100
AcDbVertex
100
AcDb2dVertex
 10
7.949422200520833
 20
-7.949422200520833
 30
0.0
  0
SEQEND
  5
58
330
55
100
AcDbEntity
  8
LAYER_1
  0
ENDBLK
  5
54
330
51
100
AcDbEntity
  8
0
100
AcDbBlockEnd
  0
BLOCK
  5
5B
330
59
100
AcDbEntity
  8
0
100
AcDbBlockBegin
  2
BLOCK_6
 70
     0
 71
     0
 10
0.0
 20
0.0
 30
0.0
  3
BLOCK_6
  1

  0
POLYLINE
  5
5D
330
59
100
AcDbEntity
  8
LAYER_1
 62
    83
100
AcDb2dPolyline
 66
     1
 10
0.0
 20
0.0
 30
0.0
  0
VERTEX
  5
5E
330
5D
100
AcDbEntity
  8
LAYER_1
 62
    83
100
AcDbVertex
100
AcDb2dVertex
 10
7.949422200520833
 20
-7.050577799479166
 30
0.0
  0
VERTEX
  5
5F
330
5D
100
AcDbEntity
  8
LAYER_1
 62
    83
100
AcDbVertex
100
AcDb2dVertex
 10
7.050584581163194
 20
-7.949422200520833
 30
0.0
  0
SEQEND
  5
60
330
5D
100
AcDbEntity
  8
LAYER_1
  0
ENDBLK
  5
5C
330
59
100
AcDbEntity
  8
0
100
AcDbBlockEnd
  0
BLOCK
  5
63
330
61
100
AcDbEntity
  8
0
100
AcDbBlockBegin
  2
BLOCK_7
 70
     0
 71
     0
 10
0.0
 20
0.0
 30
0.0
  3
BLOCK_7
  1

  0
SPLINE
  5
65
330
61
100
AcDbEntity
  8
LAYER_1
100
AcDbSpline
210
0.0
220
0.0
230
1.0
 70
    11
 71
     3
 72
    20
 73
    16
 74
     0
 42
0.0000000001
 43
0.0000000001
 40
0.0
 40
0.0
 40
0.0
 40
0.0
 40
1.0
 40
1.0
 40
1.0
 40
2.0
 40
2.0
 40
2.0
 40
3.0
 40
3.0
 40
3.0
 40
4.0
 40
4.0
 40
4.0
 40
5.0
 40
5.0
 40
5.0
 40
5.0
 10
7.800008138020833
 20
-2.086995442708333
 30
0.0
 10
7.800008138020833
 20
-1.921312120225694
 30
0.0
 10
7.665676540798611
 20
-1.786994086371528
 30
0.0
 10
7.5
 20
-1.786994086371528
 30
0.0
 10
7.334323459201388
 20
-1.786994086371528
 30
0.0
 10
7.199998643663194
 20
-1.921312120225694
 30
0.0
 10
7.199998643663194
 20
-2.086995442708333
 30
0.0
 10
7.199998643663194
 20
-2.252685546875
 30
0.0
 10
7.334323459201388
 20
-2.386996799045139
 30
0.0
 10
7.5
 20
-2.386996799045139
 30
0.0
 10
7.665676540798611
 20
-2.386996799045139
 30
0.0
 10
7.800008138020833
 20
-2.252685546875
 30
0.0
 10
7.800008138020833
 20
-2.086995442708333
 30
0.0
 10
7.800008138020833
 20
-2.086995442708333
 30
0.0
 10
7.800008138020833
 20
-2.086995442708333
 30
0.0
 10
7.800008138020833
 20
-2.086995442708333
 30
0.0
  0
INSERT
  5
66
330
61
100
AcDbEntity
  8
LAYER_1
 62
     1
100
AcDbBlockReference
  2
*U10
 10
0.0
 20
0.0
 30
0.0
1001
ACAD
1002
{
1000
R14_HATCH_DATA
1000
66
1011
1.0
1021
0.0
1031
0.0
1011
0.0
1021
1.0
1031
0.0
1011
0.0
1021
0.0
1031
1.0
1040
0.0
1010
0.0
1020
0.0
1030
1.0
1000
SOLID
1070
     1
1070
     1
1071
        1
1071
        1
1071
        1
1070
     4
1070
     3
1070
     0
1070
     1
1071
       20
1071
       16
1040
0.0
1040
0.0
1040
0.0
1040
0.0
1040
1.0
1040
1.0
1040
1.0
1040
2.0
1040
2.0
1040
2.0
1040
3.0
1040
3.0
1040
3.0
1040
4.0
1040
4.0
1040
4.0
1040
5.0
1040
5.0
1040
5.0
1040
5.0
1040
7.800008138020833
1040
-2.086995442708333
1040
7.800008138020833
1040
-1.921312120225694
1040
7.665676540798611
1040
-1.786994086371528
1040
7.5
1040
-1.786994086371528
1040
7.334323459201388
1040
-1.786994086371528
1040
7.199998643663194
1040
-1.921312120225694
1040
7.199998643663194
1040
-2.086995442708333
1040
7.199998643663194
1040
-2.252685546875
1040
7.334323459201388
1040
-2.386996799045139
1040
7.5
1040
-2.386996799045139
1040
7.665676540798611
1040
-2.386996799045139
1040
7.800008138020833
1040
-2.252685546875
1040
7.800008138020833
1040
-2.086995442708333
1040
7.800008138020833
1040
-2.086995442708333
1040
7.800008138020833
1040
-2.086995442708333
1040
7.800008138020833
1040
-2.086995442708333
1071
        0
1070
     2
1070
     1
1071
        0
1002
}
  0
ENDBLK
  5
64
330
61
100
AcDbEntity
  8
0
100
AcDbBlockEnd
  0
BLOCK
  5
69
330
67
100
AcDbEntity
  8
0
100
AcDbBlockBegin
  2
BLOCK_8
 70
     0
 71
     0
 10
0.0
 20
0.0
 30
0.0
  3
BLOCK_8
  1

  0
SPLINE
  5
6B
330
67
100
AcDbEntity
  8
LAYER_1
100
AcDbSpline
210
0.0
220
0.0
230
1.0
 70
    11
 71
     3
 72
    20
 73
    16
 74
     0
 42
0.0000000001
 43
0.0000000001
 40
0.0
 40
0.0
 40
0.0
 40
0.0
 40
1.0
 40
1.0
 40
1.0
 40
2.0
 40
2.0
 40
2.0
 40
3.0
 40
3.0
 40
3.0
 40
4.0
 40
4.0
 40
4.0
 40
5.0
 40
5.0
 40
5.0
 40
5.0
 10
12.48779296875
 20
-10.20650227864583
 30
0.0
 10
12.48779296875
 20
-10.04081217447917
 30
0.0
 10
12.35347493489583
 20
-9.906494140625
 30
0.0
 10
12.18779839409722
 20
-9.906494140625
 30
0.0
 10
12.02210828993056
 20
-9.906494140625
 30
0.0
 10
11.88779025607639
 20
-10.04081217447917
 30
0.0
 10
11.88779025607639
 20
-10.20650227864583
 30
0.0
 10
11.88779025607639
 20
-10.37217881944444
 30
0.0
 10
12.02210828993056
 20
-10.50649685329861
 30
0.0
 10
12.18779839409722
 20
-10.50649685329861
 30
0.0
 10
12.35347493489583
 20
-10.50649685329861
 30
0.0
 10
12.48779296875
 20
-10.37217881944444
 30
0.0
 10
12.48779296875
 20
-10.20650227864583
 30
0.0
 10
12.48779296875
 20
-10.20650227864583
 30
0.0
 10
12.48779296875
 20
-10.20650227864583
 30
0.0
 10
12.48779296875
 20
-10.20650227864583
 30
0.0
  0
INSERT
  5
6C
330
67
100
AcDbEntity
  8
LAYER_1
 62
     1
100
AcDbBlockReference
  2
*U11
 10
0.0
 20
0.0
 30
0.0
1001
ACAD
1002
{
1000
R14_HATCH_DATA
1000
6C
1011
1.0
1021
0.0
1031
0.0
1011
0.0
1021
1.0
1031
0.0
1011
0.0
1021
0.0
1031
1.0
1040
0.0
1010
0.0
1020
0.0
1030
1.0
1000
SOLID
1070
     1
1070
     1
1071
        1
1071
        1
1071
        1
1070
     4
1070
     3
1070
     0
1070
     1
1071
       20
1071
       16
1040
0.0
1040
0.0
1040
0.0
1040
0.0
1040
1.0
1040
1.0
1040
1.0
1040
2.0
1040
2.0
1040
2.0
1040
3.0
1040
3.0
1040
3.0
1040
4.0
1040
4.0
1040
4.0
1040
5.0
1040
5.0
1040
5.0
1040
5.0
1040
12.48779296875
1040
-10.20650227864583
1040
12.48779296875
1040
-10.04081217447917
1040
12.35347493489583
1040
-9.906494140625
1040
12.18779839409722
1040
-9.906494140625
1040
12.02210828993056
1040
-9.906494140625
1040
11.88779025607639
1040
-10.04081217447917
1040
11.88779025607639
1040
-10.20650227864583
1040
11.88779025607639
1040
-10.37217881944444
1040
12.02210828993056
1040
-10.50649685329861
1040
12.18779839409722
1040
-10.50649685329861
1040
12.35347493489583
1040
-10.50649685329861
1040
12.48779296875
1040
-10.37217881944444
1040
12.48779296875
1040
-10.20650227864583
1040
12.48779296875
1040
-10.20650227864583
1040
12.48779296875
1040
-10.20650227864583
1040
12.48779296875
1040
-10.20650227864583
1071
        0
1070
     2
1070
     1
1071
        0
1002
}
  0
ENDBLK
  5
6A
330
67
100
AcDbEntity
  8
0
100
AcDbBlockEnd
  0
BLOCK
  5
6F
330
6D
100
AcDbEntity
  8
0
100
AcDbBlockBegin
  2
BLOCK_9
 70
     0
 71
     0
 10
0.0
 20
0.0
 30
0.0
  3
BLOCK_9
  1

  0
SPLINE
  5
71
330
6D
100
AcDbEntity
  8
LAYER_1
100
AcDbSpline
210
0.0
220
0.0
230
1.0
 70
    11
 71
     3
 72
    20
 73
    16
 74
     0
 42
0.0000000001
 43
0.0000000001
 40
0.0
 40
0.0
 40
0.0
 40
0.0
 40
1.0
 40
1.0
 40
1.0
 40
2.0
 40
2.0
 40
2.0
 40
3.0
 40
3.0
 40
3.0
 40
4.0
 40
4.0
 40
4.0
 40
5.0
 40
5.0
 40
5.0
 40
5.0
 10
3.112202962239583
 20
-10.20650227864583
 30
0.0
 10
3.112202962239583
 20
-10.04081217447917
 30
0.0
 10
2.977891710069444
 20
-9.906494140625
 30
0.0
 10
2.812201605902778
 20
-9.906494140625
 30
0.0
 10
2.646518283420139
 20
-9.906494140625
 30
0.0
 10
2.51220703125
 20
-10.04081217447917
 30
0.0
 10
2.51220703125
 20
-10.20650227864583
 30
0.0
 10
2.51220703125
 20
-10.37217881944444
 30
0.0
 10
2.646518283420139
 20
-10.50649685329861
 30
0.0
 10
2.812201605902778
 20
-10.50649685329861
 30
0.0
 10
2.977891710069444
 20
-10.50649685329861
 30
0.0
 10
3.112202962239583
 20
-10.37217881944444
 30
0.0
 10
3.112202962239583
 20
-10.20650227864583
 30
0.0
 10
3.112202962239583
 20
-10.20650227864583
 30
0.0
 10
3.112202962239583
 20
-10.20650227864583
 30
0.0
 10
3.112202962239583
 20
-10.20650227864583
 30
0.0
  0
INSERT
  5
72
330
6D
100
AcDbEntity
  8
LAYER_1
 62
     1
100
AcDbBlockReference
  2
*U12
 10
0.0
 20
0.0
 30
0.0
1001
ACAD
1002
{
1000
R14_HATCH_DATA
1000
72
1011
1.0
1021
0.0
1031
0.0
1011
0.0
1021
1.0
1031
0.0
1011
0.0
1021
0.0
1031
1.0
1040
0.0
1010
0.0
1020
0.0
1030
1.0
1000
SOLID
1070
     1
1070
     1
1071
        1
1071
        1
1071
        1
1070
     4
1070
     3
1070
     0
1070
     1
1071
       20
1071
       16
1040
0.0
1040
0.0
1040
0.0
1040
0.0
1040
1.0
1040
1.0
1040
1.0
1040
2.0
1040
2.0
1040
2.0
1040
3.0
1040
3.0
1040
3.0
1040
4.0
1040
4.0
1040
4.0
1040
5.0
1040
5.0
1040
5.0
1040
5.0
1040
3.112202962239583
1040
-10.20650227864583
1040
3.112202962239583
1040
-10.04081217447917
1040
2.977891710069444
1040
-9.906494140625
1040
2.812201605902778
1040
-9.906494140625
1040
2.646518283420139
1040
-9.906494140625
1040
2.51220703125
1040
-10.04081217447917
1040
2.51220703125
1040
-10.20650227864583
1040
2.51220703125
1040
-10.37217881944444
1040
2.646518283420139
1040
-10.50649685329861
1040
2.812201605902778
1040
-10.50649685329861
1040
2.977891710069444
1040
-10.50649685329861
1040
3.112202962239583
1040
-10.37217881944444
1040
3.112202962239583
1040
-10.20650227864583
1040
3.112202962239583
1040
-10.20650227864583
1040
3.112202962239583
1040
-10.20650227864583
1040
3.112202962239583
1040
-10.20650227864583
1071
        0
1070
     2
1070
     1
1071
        0
1002
}
  0
ENDBLK
  5
70
330
6D
100
AcDbEntity
  8
0
100
AcDbBlockEnd
  0
BLOCK
  5
75
330
73
100
AcDbEntity
  8
0
100
AcDbBlockBegin
  2
BLOCK_10
 70
     0
 71
     0
 10
0.0
 20
0.0
 30
0.0
  3
BLOCK_10
  1

  0
SPLINE
  5
77
330
73
100
AcDbEntity
  8
LAYER_1
 62
     7
100
AcDbSpline
210
0.0
220
0.0
230
1.0
 70
    11
 71
     3
 72
    20
 73
    16
 74
     0
 42
0.0000000001
 43
0.0000000001
 40
0.0
 40
0.0
 40
0.0
 40
0.0
 40
1.0
 40
1.0
 40
1.0
 40
2.0
 40
2.0
 40
2.0
 40
3.0
 40
3.0
 40
3.0
 40
4.0
 40
4.0
 40
4.0
 40
5.0
 40
5.0
 40
5.0
 40
5.0
 10
14.0
 20
-7.5
 30
0.0
 10
14.0
 20
-3.910142686631944
 30
0.0
 10
11.08985731336806
 20
-1.0
 30
0.0
 10
7.5
 20
-1.0
 30
0.0
 10
3.910149468315972
 20
-1.0
 30
0.0
 10
1.0
 20
-3.910142686631944
 30
0.0
 10
1.0
 20
-7.5
 30
0.0
 10
1.0
 20
-11.08985731336806
 30
0.0
 10
3.910149468315972
 20
-14.0
 30
0.0
 10
7.5
 20
-14.0
 30
0.0
 10
11.08985731336806
 20
-13.99998643663194
 30
0.0
 10
14.0
 20
-11.08984375
 30
0.0
 10
14.0
 20
-7.5
 30
0.0
 10
14.0
 20
-7.5
 30
0.0
 10
14.0
 20
-7.5
 30
0.0
 10
14.0
 20
-7.5
 30
0.0
  0
ENDBLK
  5
76
330
73
100
AcDbEntity
  8
0
100
AcDbBlockEnd
  0
BLOCK
  5
B8
330
79
100
AcDbEntity
  8
0
100
AcDbBlockBegin
  2
*U10
 70
     1
 71
     0
 10
0.0
 20
0.0
 30
0.0
  3
*U10
  1

  0
SOLID
  5
7A
330
79
100
AcDbEntity
  8
LAYER_1
 62
     1
100
AcDbTrace
 10
7.201547622680663
 20
-2.117669486337237
 30
0.0
 11
7.199998643663194
 21
-2.086995442708333
 31
0.0
 12
7.201547622680663
 22
-2.056322516666518
 32
0.0
 13
7.201547622680663
 23
-2.056322516666518
 33
0.0
  0
SOLID
  5
7B
330
79
100
AcDbEntity
  8
LAYER_1
 62
     1
100
AcDbTrace
 10
7.201547622680663
 20
-2.117669486337237
 30
0.0
 11
7.201547622680663
 21
-2.056322516666518
 31
0.0
 12
7.206094000074598
 22
-2.147457308239407
 32
0.0
 13
7.206094000074598
 23
-2.147457308239407
 33
0.0
  0
SOLID
  5
7C
330
79
100
AcDbEntity
  8
LAYER_1
 62
     1
100
AcDbTrace
 10
7.206094000074598
 20
-2.147457308239407
 30
0.0
 11
7.201547622680663
 21
-2.056322516666518
 31
0.0
 12
7.206094000074598
 22
-2.026535524262322
 32
0.0
 13
7.206094000074598
 23
-2.026535524262322
 33
0.0
  0
SOLID
  5
7D
330
79
100
AcDbEntity
  8
LAYER_1
 62
     1
100
AcDbTrace
 10
7.206094000074598
 20
-2.147457308239407
 30
0.0
 11
7.206094000074598
 21
-2.026535524262322
 31
0.0
 12
7.213486936357286
 22
-2.176208128531774
 32
0.0
 13
7.213486936357286
 23
-2.176208128531774
 33
0.0
  0
SOLID
  5
7E
330
79
100
AcDbEntity
  8
LAYER_1
 62
     1
100
AcDbTrace
 10
7.213486936357286
 20
-2.176208128531774
 30
0.0
 11
7.206094000074598
 21
-2.026535524262322
 31
0.0
 12
7.213486936357286
 22
-1.997785275181134
 32
0.0
 13
7.213486936357286
 23
-1.997785275181134
 33
0.0
  0
SOLID
  5
7F
330
79
100
AcDbEntity
  8
LAYER_1
 62
     1
100
AcDbTrace
 10
7.213486936357286
 20
-2.176208128531774
 30
0.0
 11
7.213486936357286
 21
-1.997785275181134
 31
0.0
 12
7.223575592041015
 22
-2.203771167331272
 32
0.0
 13
7.223575592041015
 23
-2.203771167331272
 33
0.0
  0
SOLID
  5
80
330
79
100
AcDbEntity
  8
LAYER_1
 62
     1
100
AcDbTrace
 10
7.223575592041015
 20
-2.203771167331272
 30
0.0
 11
7.213486936357286
 21
-1.997785275181134
 31
0.0
 12
7.223575592041015
 22
-1.970222579108344
 32
0.0
 13
7.223575592041015
 23
-1.970222579108344
 33
0.0
  0
SOLID
  5
81
330
79
100
AcDbEntity
  8
LAYER_1
 62
     1
100
AcDbTrace
 10
7.223575592041015
 20
-2.203771167331272
 30
0.0
 11
7.223575592041015
 21
-1.970222579108344
 31
0.0
 12
7.236209127638074
 22
-2.229995644754834
 32
0.0
 13
7.236209127638074
 23
-2.229995644754834
 33
0.0
  0
SOLID
  5
82
330
79
100
AcDbEntity
  8
LAYER_1
 62
     1
100
AcDbTrace
 10
7.236209127638074
 20
-2.229995644754834
 30
0.0
 11
7.223575592041015
 21
-1.970222579108344
 31
0.0
 12
7.236209127638074
 22
-1.94399824572934
 32
0.0
 13
7.236209127638074
 23
-1.94399824572934
 33
0.0
  0
SOLID
  5
83
330
79
100
AcDbEntity
  8
LAYER_1
 62
     1
100
AcDbTrace
 10
7.236209127638074
 20
-2.229995644754834
 30
0.0
 11
7.236209127638074
 21
-1.94399824572934
 31
0.0
 12
7.251236703660752
 22
-2.254730780919393
 32
0.0
 13
7.251236703660752
 23
-2.254730780919393
 33
0.0
  0
SOLID
  5
84
330
79
100
AcDbEntity
  8
LAYER_1
 62
     1
100
AcDbTrace
 10
7.251236703660752
 20
-2.254730780919393
 30
0.0
 11
7.236209127638074
 21
-1.94399824572934
 31
0.0
 12
7.251236703660752
 22
-1.919263084729513
 32
0.0
 13
7.251236703660752
 23
-1.919263084729513
 33
0.0
  0
SOLID
  5
85
330
79
100
AcDbEntity
  8
LAYER_1
 62
     1
100
AcDbTrace
 10
7.251236703660752
 20
-2.254730780919393
 30
0.0
 11
7.251236703660752
 21
-1.919263084729513
 31
0.0
 12
7.268507480621338
 22
-2.277825795941883
 32
0.0
 13
7.268507480621338
 23
-2.277825795941883
 33
0.0
  0
SOLID
  5
86
330
79
100
AcDbEntity
  8
LAYER_1
 62
     1
100
AcDbTrace
 10
7.268507480621338
 20
-2.277825795941883
 30
0.0
 11
7.251236703660752
 21
-1.919263084729513
 31
0.0
 12
7.268507480621338
 22
-1.89616790579425
 32
0.0
 13
7.268507480621338
 23
-1.89616790579425
 33
0.0
  0
SOLID
  5
87
330
79
100
AcDbEntity
  8
LAYER_1
 62
     1
100
AcDbTrace
 10
7.268507480621338
 20
-2.277825795941883
 30
0.0
 11
7.268507480621338
 21
-1.89616790579425
 31
0.0
 12
7.287870619032118
 22
-2.299129909939236
 32
0.0
 13
7.287870619032118
 23
-2.299129909939236
 33
0.0
  0
SOLID
  5
88
330
79
100
AcDbEntity
  8
LAYER_1
 62
     1
100
AcDbTrace
 10
7.287870619032118
 20
-2.299129909939236
 30
0.0
 11
7.268507480621338
 21
-1.89616790579425
 31
0.0
 12
7.287870619032118
 22
-1.874863518608941
 32
0.0
 13
7.287870619032118
 23
-1.874863518608941
 33
0.0
  0
SOLID
  5
89
330
79
100
AcDbEntity
  8
LAYER_1
 62
     1
100
AcDbTrace
 10
7.287870619032118
 20
-2.299129909939236
 30
0.0
 11
7.287870619032118
 21
-1.874863518608941
 31
0.0
 12
7.309175279405381
 22
-2.318492343028386
 32
0.0
 13
7.309175279405381
 23
-2.318492343028386
 33
0.0
  0
SOLID
  5
8A
330
79
100
AcDbEntity
  8
LAYER_1
 62
     1
100
AcDbTrace
 10
7.309175279405381
 20
-2.318492343028386
 30
0.0
 11
7.287870619032118
 21
-1.874863518608941
 31
0.0
 12
7.309175279405381
 22
-1.855500732858976
 32
0.0
 13
7.309175279405381
 23
-1.855500732858976
 33
0.0
  0
SOLID
  5
8B
330
79
100
AcDbEntity
  8
LAYER_1
 62
     1
100
AcDbTrace
 10
7.309175279405381
 20
-2.318492343028386
 30
0.0
 11
7.309175279405381
 21
-1.855500732858976
 31
0.0
 12
7.332270622253417
 22
-2.335762315326267
 32
0.0
 13
7.332270622253417
 23
-2.335762315326267
 33
0.0
  0
SOLID
  5
8C
330
79
100
AcDbEntity
  8
LAYER_1
 62
     1
100
AcDbTrace
 10
7.332270622253417
 20
-2.335762315326267
 30
0.0
 11
7.309175279405381
 21
-1.855500732858976
 31
0.0
 12
7.332270622253417
 22
-1.838230358229743
 32
0.0
 13
7.332270622253417
 23
-1.838230358229743
 33
0.0
  0
SOLID
  5
8D
330
79
100
AcDbEntity
  8
LAYER_1
 62
     1
100
AcDbTrace
 10
7.332270622253417
 20
-2.335762315326267
 30
0.0
 11
7.332270622253417
 21
-1.838230358229743
 31
0.0
 12
7.357005808088513
 22
-2.350789046949811
 32
0.0
 13
7.357005808088513
 23
-2.350789046949811
 33
0.0
  0
SOLID
  5
8E
330
79
100
AcDbEntity
  8
LAYER_1
 62
     1
100
AcDbTrace
 10
7.357005808088513
 20
-2.350789046949811
 30
0.0
 11
7.332270622253417
 21
-1.838230358229743
 31
0.0
 12
7.357005808088513
 22
-1.823203204406632
 32
0.0
 13
7.357005808088513
 23
-1.823203204406632
 33
0.0
  0
SOLID
  5
8F
330
79
100
AcDbEntity
  8
LAYER_1
 62
     1
100
AcDbTrace
 10
7.357005808088513
 20
-2.350789046949811
 30
0.0
 11
7.357005808088513
 21
-1.823203204406632
 31
0.0
 12
7.383229997422959
 22
-2.36342175801595
 32
0.0
 13
7.383229997422959
 23
-2.36342175801595
 33
0.0
  0
SOLID
  5
90
330
79
100
AcDbEntity
  8
LAYER_1
 62
     1
100
AcDbTrace
 10
7.383229997422959
 20
-2.36342175801595
 30
0.0
 11
7.357005808088513
 21
-1.823203204406632
 31
0.0
 12
7.383229997422959
 22
-1.810570081075032
 32
0.0
 13
7.383229997422959
 23
-1.810570081075032
 33
0.0
  0
SOLID
  5
91
330
79
100
AcDbEntity
  8
LAYER_1
 62
     1
100
AcDbTrace
 10
7.383229997422959
 20
-2.36342175801595
 30
0.0
 11
7.383229997422959
 21
-1.810570081075032
 31
0.0
 12
7.410792350769044
 22
-2.37350966864162
 32
0.0
 13
7.410792350769044
 23
-2.37350966864162
 33
0.0
  0
SOLID
  5
92
330
79
100
AcDbEntity
  8
LAYER_1
 62
     1
100
AcDbTrace
 10
7.410792350769044
 20
-2.37350966864162
 30
0.0
 11
7.383229997422959
 21
-1.810570081075032
 31
0.0
 12
7.410792350769044
 22
-1.800481797920333
 32
0.0
 13
7.410792350769044
 23
-1.800481797920333
 33
0.0
  0
SOLID
  5
93
330
79
100
AcDbEntity
  8
LAYER_1
 62
     1
100
AcDbTrace
 10
7.410792350769044
 20
-2.37350966864162
 30
0.0
 11
7.410792350769044
 21
-1.800481797920333
 31
0.0
 12
7.439542028639051
 22
-2.380901998943753
 32
0.0
 13
7.439542028639051
 23
-2.380901998943753
 33
0.0
  0
SOLID
  5
94
330
79
100
AcDbEntity
  8
LAYER_1
 62
     1
100
AcDbTrace
 10
7.439542028639051
 20
-2.380901998943753
 30
0.0
 11
7.410792350769044
 21
-1.800481797920333
 31
0.0
 12
7.439542028639051
 22
-1.793089164627923
 32
0.0
 13
7.439542028639051
 23
-1.793089164627923
 33
0.0
  0
SOLID
  5
95
330
79
100
AcDbEntity
  8
LAYER_1
 62
     1
100
AcDbTrace
 10
7.439542028639051
 20
-2.380901998943753
 30
0.0
 11
7.439542028639051
 21
-1.793089164627923
 31
0.0
 12
7.469328191545275
 22
-2.385447969039281
 32
0.0
 13
7.469328191545275
 23
-2.385447969039281
 33
0.0
  0
SOLID
  5
96
330
79
100
AcDbEntity
  8
LAYER_1
 62
     1
100
AcDbTrace
 10
7.469328191545275
 20
-2.385447969039281
 30
0.0
 11
7.439542028639051
 21
-1.793089164627923
 31
0.0
 12
7.469328191545275
 22
-1.788542990883191
 32
0.0
 13
7.469328191545275
 23
-1.788542990883191
 33
0.0
  0
SOLID
  5
97
330
79
100
AcDbEntity
  8
LAYER_1
 62
     1
100
AcDbTrace
 10
7.469328191545275
 20
-2.385447969039281
 30
0.0
 11
7.469328191545275
 21
-1.788542990883191
 31
0.0
 12
7.5
 22
-2.386996799045139
 32
0.0
 13
7.5
 23
-2.386996799045139
 33
0.0
  0
SOLID
  5
98
330
79
100
AcDbEntity
  8
LAYER_1
 62
     1
100
AcDbTrace
 10
7.5
 20
-2.386996799045139
 30
0.0
 11
7.469328191545275
 21
-1.788542990883191
 31
0.0
 12
7.5
 22
-1.786994086371528
 32
0.0
 13
7.5
 23
-1.786994086371528
 33
0.0
  0
SOLID
  5
99
330
79
100
AcDbEntity
  8
LAYER_1
 62
     1
100
AcDbTrace
 10
-7.5
 20
-2.386996799045139
 30
0.0
 11
-7.5
 21
-1.786994086371528
 31
0.0
 12
-7.530671884616217
 22
-2.385447969039281
 32
0.0
 13
-7.530671884616217
 23
-2.385447969039281
 33
0.0
210
0.0
220
0.0
230
-1.0
  0
SOLID
  5
9A
330
79
100
AcDbEntity
  8
LAYER_1
 62
     1
100
AcDbTrace
 10
-7.530671884616217
 20
-2.385447969039281
 30
0.0
 11
-7.5
 21
-1.786994086371528
 31
0.0
 12
-7.530671884616217
 22
-1.788542990883191
 32
0.0
 13
-7.530671884616217
 23
-1.788542990883191
 33
0.0
210
0.0
220
0.0
230
-1.0
  0
SOLID
  5
9B
330
79
100
AcDbEntity
  8
LAYER_1
 62
     1
100
AcDbTrace
 10
-7.530671884616217
 20
-2.385447969039281
 30
0.0
 11
-7.530671884616217
 21
-1.788542990883191
 31
0.0
 12
-7.560458262761435
 22
-2.380901998943753
 32
0.0
 13
-7.560458262761435
 23
-2.380901998943753
 33
0.0
210
0.0
220
0.0
230
-1.0
  0
SOLID
  5
9C
330
79
100
AcDbEntity
  8
LAYER_1
 62
     1
100
AcDbTrace
 10
-7.560458262761435
 20
-2.380901998943753
 30
0.0
 11
-7.530671884616217
 21
-1.788542990883191
 31
0.0
 12
-7.560458262761435
 22
-1.793089164627923
 32
0.0
 13
-7.560458262761435
 23
-1.793089164627923
 33
0.0
210
0.0
220
0.0
230
-1.0
  0
SOLID
  5
9D
330
79
100
AcDbEntity
  8
LAYER_1
 62
     1
100
AcDbTrace
 10
-7.560458262761435
 20
-2.380901998943753
 30
0.0
 11
-7.560458262761435
 21
-1.793089164627923
 31
0.0
 12
-7.589208275079727
 22
-2.37350966864162
 32
0.0
 13
-7.589208275079727
 23
-2.37350966864162
 33
0.0
210
0.0
220
0.0
230
-1.0
  0
SOLID
  5
9E
330
79
100
AcDbEntity
  8
LAYER_1
 62
     1
100
AcDbTrace
 10
-7.589208275079727
 20
-2.37350966864162
 30
0.0
 11
-7.560458262761435
 21
-1.793089164627923
 31
0.0
 12
-7.589208275079727
 22
-1.800481797920333
 32
0.0
 13
-7.589208275079727
 23
-1.800481797920333
 33
0.0
210
0.0
220
0.0
230
-1.0
  0
SOLID
  5
9F
330
79
100
AcDbEntity
  8
LAYER_1
 62
     1
100
AcDbTrace
 10
-7.589208275079727
 20
-2.37350966864162
 30
0.0
 11
-7.589208275079727
 21
-1.800481797920333
 31
0.0
 12
-7.616771062215169
 22
-2.36342175801595
 32
0.0
 13
-7.616771062215169
 23
-2.36342175801595
 33
0.0
210
0.0
220
0.0
230
-1.0
  0
SOLID
  5
A0
330
79
100
AcDbEntity
  8
LAYER_1
 62
     1
100
AcDbTrace
 10
-7.616771062215169
 20
-2.36342175801595
 30
0.0
 11
-7.589208275079727
 21
-1.800481797920333
 31
0.0
 12
-7.616771062215169
 22
-1.810570081075032
 32
0.0
 13
-7.616771062215169
 23
-1.810570081075032
 33
0.0
210
0.0
220
0.0
230
-1.0
  0
SOLID
  5
A1
330
79
100
AcDbEntity
  8
LAYER_1
 62
     1
100
AcDbTrace
 10
-7.616771062215169
 20
-2.36342175801595
 30
0.0
 11
-7.616771062215169
 21
-1.810570081075032
 31
0.0
 12
-7.642995764811834
 22
-2.350789046949811
 32
0.0
 13
-7.642995764811834
 23
-2.350789046949811
 33
0.0
210
0.0
220
0.0
230
-1.0
  0
SOLID
  5
A2
330
79
100
AcDbEntity
  8
LAYER_1
 62
     1
100
AcDbTrace
 10
-7.642995764811834
 20
-2.350789046949811
 30
0.0
 11
-7.616771062215169
 21
-1.810570081075032
 31
0.0
 12
-7.642995764811834
 22
-1.823203204406632
 32
0.0
 13
-7.642995764811834
 23
-1.823203204406632
 33
0.0
210
0.0
220
0.0
230
-1.0
  0
SOLID
  5
A3
330
79
100
AcDbEntity
  8
LAYER_1
 62
     1
100
AcDbTrace
 10
-7.642995764811834
 20
-2.350789046949811
 30
0.0
 11
-7.642995764811834
 21
-1.823203204406632
 31
0.0
 12
-7.667731523513793
 22
-2.335762315326267
 32
0.0
 13
-7.667731523513793
 23
-2.335762315326267
 33
0.0
210
0.0
220
0.0
230
-1.0
  0
SOLID
  5
A4
330
79
100
AcDbEntity
  8
LAYER_1
 62
     1
100
AcDbTrace
 10
-7.667731523513793
 20
-2.335762315326267
 30
0.0
 11
-7.642995764811834
 21
-1.823203204406632
 31
0.0
 12
-7.667731523513793
 22
-1.838230358229743
 32
0.0
 13
-7.667731523513793
 23
-1.838230358229743
 33
0.0
210
0.0
220
0.0
230
-1.0
  0
SOLID
  5
A5
330
79
100
AcDbEntity
  8
LAYER_1
 62
     1
100
AcDbTrace
 10
-7.667731523513793
 20
-2.335762315326267
 30
0.0
 11
-7.667731523513793
 21
-1.838230358229743
 31
0.0
 12
-7.690827478965123
 22
-2.318492343028386
 32
0.0
 13
-7.690827478965123
 23
-2.318492343028386
 33
0.0
210
0.0
220
0.0
230
-1.0
  0
SOLID
  5
A6
330
79
100
AcDbEntity
  8
LAYER_1
 62
     1
100
AcDbTrace
 10
-7.690827478965123
 20
-2.318492343028386
 30
0.0
 11
-7.667731523513793
 21
-1.838230358229743
 31
0.0
 12
-7.690827478965123
 22
-1.855500732858976
 32
0.0
 13
-7.690827478965123
 23
-1.855500732858976
 33
0.0
210
0.0
220
0.0
230
-1.0
  0
SOLID
  5
A7
330
79
100
AcDbEntity
  8
LAYER_1
 62
     1
100
AcDbTrace
 10
-7.690827478965123
 20
-2.318492343028386
 30
0.0
 11
-7.690827478965123
 21
-1.855500732858976
 31
0.0
 12
-7.712132771809895
 22
-2.299129909939236
 32
0.0
 13
-7.712132771809895
 23
-2.299129909939236
 33
0.0
210
0.0
220
0.0
230
-1.0
  0
SOLID
  5
A8
330
79
100
AcDbEntity
  8
LAYER_1
 62
     1
100
AcDbTrace
 10
-7.712132771809895
 20
-2.299129909939236
 30
0.0
 11
-7.690827478965123
 21
-1.855500732858976
 31
0.0
 12
-7.712132771809895
 22
-1.874863518608941
 32
0.0
 13
-7.712132771809895
 23
-1.874863518608941
 33
0.0
210
0.0
220
0.0
230
-1.0
  0
SOLID
  5
A9
330
79
100
AcDbEntity
  8
LAYER_1
 62
     1
100
AcDbTrace
 10
-7.712132771809895
 20
-2.299129909939236
 30
0.0
 11
-7.712132771809895
 21
-1.874863518608941
 31
0.0
 12
-7.731496542692184
 22
-2.277825795941883
 32
0.0
 13
-7.731496542692184
 23
-2.277825795941883
 33
0.0
210
0.0
220
0.0
230
-1.0
  0
SOLID
  5
AA
330
79
100
AcDbEntity
  8
LAYER_1
 62
     1
100
AcDbTrace
 10
-7.731496542692184
 20
-2.277825795941883
 30
0.0
 11
-7.712132771809895
 21
-1.874863518608941
 31
0.0
 12
-7.731496542692184
 22
-1.89616790579425
 32
0.0
 13
-7.731496542692184
 23
-1.89616790579425
 33
0.0
210
0.0
220
0.0
230
-1.0
  0
SOLID
  5
AB
330
79
100
AcDbEntity
  8
LAYER_1
 62
     1
100
AcDbTrace
 10
-7.731496542692184
 20
-2.277825795941883
 30
0.0
 11
-7.731496542692184
 21
-1.89616790579425
 31
0.0
 12
-7.748767932256063
 22
-2.254730780919393
 32
0.0
 13
-7.748767932256063
 23
-2.254730780919393
 33
0.0
210
0.0
220
0.0
230
-1.0
  0
SOLID
  5
AC
330
79
100
AcDbEntity
  8
LAYER_1
 62
     1
100
AcDbTrace
 10
-7.748767932256063
 20
-2.254730780919393
 30
0.0
 11
-7.731496542692184
 21
-1.89616790579425
 31
0.0
 12
-7.748767932256063
 22
-1.919263084729513
 32
0.0
 13
-7.748767932256063
 23
-1.919263084729513
 33
0.0
210
0.0
220
0.0
230
-1.0
  0
SOLID
  5
AD
330
79
100
AcDbEntity
  8
LAYER_1
 62
     1
100
AcDbTrace
 10
-7.748767932256063
 20
-2.254730780919393
 30
0.0
 11
-7.748767932256063
 21
-1.919263084729513
 31
0.0
 12
-7.763796081145604
 22
-2.229995644754834
 32
0.0
 13
-7.763796081145604
 23
-2.229995644754834
 33
0.0
210
0.0
220
0.0
230
-1.0
  0
SOLID
  5
AE
330
79
100
AcDbEntity
  8
LAYER_1
 62
     1
100
AcDbTrace
 10
-7.763796081145604
 20
-2.229995644754834
 30
0.0
 11
-7.748767932256063
 21
-1.919263084729513
 31
0.0
 12
-7.763796081145604
 22
-1.94399824572934
 32
0.0
 13
-7.763796081145604
 23
-1.94399824572934
 33
0.0
210
0.0
220
0.0
230
-1.0
  0
SOLID
  5
AF
330
79
100
AcDbEntity
  8
LAYER_1
 62
     1
100
AcDbTrace
 10
-7.763796081145604
 20
-2.229995644754834
 30
0.0
 11
-7.763796081145604
 21
-1.94399824572934
 31
0.0
 12
-7.776430130004883
 22
-2.203771167331272
 32
0.0
 13
-7.776430130004883
 23
-2.203771167331272
 33
0.0
210
0.0
220
0.0
230
-1.0
  0
SOLID
  5
B0
330
79
100
AcDbEntity
  8
LAYER_1
 62
     1
100
AcDbTrace
 10
-7.776430130004883
 20
-2.203771167331272
 30
0.0
 11
-7.763796081145604
 21
-1.94399824572934
 31
0.0
 12
-7.776430130004883
 22
-1.970222579108344
 32
0.0
 13
-7.776430130004883
 23
-1.970222579108344
 33
0.0
210
0.0
220
0.0
230
-1.0
  0
SOLID
  5
B1
330
79
100
AcDbEntity
  8
LAYER_1
 62
     1
100
AcDbTrace
 10
-7.776430130004883
 20
-2.203771167331272
 30
0.0
 11
-7.776430130004883
 21
-1.970222579108344
 31
0.0
 12
-7.786519219477971
 22
-2.176208128531774
 32
0.0
 13
-7.786519219477971
 23
-2.176208128531774
 33
0.0
210
0.0
220
0.0
230
-1.0
  0
SOLID
  5
B2
330
79
100
AcDbEntity
  8
LAYER_1
 62
     1
100
AcDbTrace
 10
-7.786519219477971
 20
-2.176208128531774
 30
0.0
 11
-7.776430130004883
 21
-1.970222579108344
 31
0.0
 12
-7.786519219477971
 22
-1.997785275181134
 32
0.0
 13
-7.786519219477971
 23
-1.997785275181134
 33
0.0
210
0.0
220
0.0
230
-1.0
  0
SOLID
  5
B3
330
79
100
AcDbEntity
  8
LAYER_1
 62
     1
100
AcDbTrace
 10
-7.786519219477971
 20
-2.176208128531774
 30
0.0
 11
-7.786519219477971
 21
-1.997785275181134
 31
0.0
 12
-7.793912490208943
 22
-2.147457308239407
 32
0.0
 13
-7.793912490208943
 23
-2.147457308239407
 33
0.0
210
0.0
220
0.0
230
-1.0
  0
SOLID
  5
B4
330
79
100
AcDbEntity
  8
LAYER_1
 62
     1
100
AcDbTrace
 10
-7.793912490208943
 20
-2.147457308239407
 30
0.0
 11
-7.786519219477971
 21
-1.997785275181134
 31
0.0
 12
-7.793912490208943
 22
-2.026535524262322
 32
0.0
 13
-7.793912490208943
 23
-2.026535524262322
 33
0.0
210
0.0
220
0.0
230
-1.0
  0
SOLID
  5
B5
330
79
100
AcDbEntity
  8
LAYER_1
 62
     1
100
AcDbTrace
 10
-7.793912490208943
 20
-2.147457308239407
 30
0.0
 11
-7.793912490208943
 21
-2.026535524262322
 31
0.0
 12
-7.798459082841873
 22
-2.117669486337237
 32
0.0
 13
-7.798459082841873
 23
-2.117669486337237
 33
0.0
210
0.0
220
0.0
230
-1.0
  0
SOLID
  5
B6
330
79
100
AcDbEntity
  8
LAYER_1
 62
     1
100
AcDbTrace
 10
-7.798459082841873
 20
-2.117669486337237
 30
0.0
 11
-7.793912490208943
 21
-2.026535524262322
 31
0.0
 12
-7.798459082841873
 22
-2.056322516666518
 32
0.0
 13
-7.798459082841873
 23
-2.056322516666518
 33
0.0
210
0.0
220
0.0
230
-1.0
  0
SOLID
  5
B7
330
79
100
AcDbEntity
  8
LAYER_1
 62
     1
100
AcDbTrace
 10
-7.798459082841873
 20
-2.117669486337237
 30
0.0
 11
-7.798459082841873
 21
-2.056322516666518
 31
0.0
 12
-7.800008138020833
 22
-2.086995442708333
 32
0.0
 13
-7.800008138020833
 23
-2.086995442708333
 33
0.0
210
0.0
220
0.0
230
-1.0
  0
ENDBLK
  5
B9
330
79
100
AcDbEntity
  8
0
100
AcDbBlockEnd
  0
BLOCK
  5
F9
330
BA
100
AcDbEntity
  8
0
100
AcDbBlockBegin
  2
*U11
 70
     1
 71
     0
 10
0.0
 20
0.0
 30
0.0
  3
*U11
  1

  0
SOLID
  5
BB
330
BA
100
AcDbEntity
  8
LAYER_1
 62
     1
100
AcDbTrace
 10
11.88933916224373
 20
-10.23717401093907
 30
0.0
 11
11.88779025607639
 21
-10.20650227864583
 31
0.0
 12
11.88933916224373
 22
-10.17582815885544
 32
0.0
 13
11.88933916224373
 23
-10.17582815885544
 33
0.0
  0
SOLID
  5
BC
330
BA
100
AcDbEntity
  8
LAYER_1
 62
     1
100
AcDbTrace
 10
11.88933916224373
 20
-10.23717401093907
 30
0.0
 11
11.88933916224373
 21
-10.17582815885544
 31
0.0
 12
11.89388534757826
 22
-10.2669599586063
 32
0.0
 13
11.89388534757826
 23
-10.2669599586063
 33
0.0
  0
SOLID
  5
BD
330
BA
100
AcDbEntity
  8
LAYER_1
 62
     1
100
AcDbTrace
 10
11.89388534757826
 20
-10.2669599586063
 30
0.0
 11
11.88933916224373
 21
-10.17582815885544
 31
0.0
 12
11.89388534757826
 22
-10.14604012171427
 32
0.0
 13
11.89388534757826
 23
-10.14604012171427
 33
0.0
  0
SOLID
  5
BE
330
BA
100
AcDbEntity
  8
LAYER_1
 62
     1
100
AcDbTrace
 10
11.89388534757826
 20
-10.2669599586063
 30
0.0
 11
11.89388534757826
 21
-10.14604012171427
 31
0.0
 12
11.90127801232868
 22
-10.29570930202802
 32
0.0
 13
11.90127801232868
 23
-10.29570930202802
 33
0.0
  0
SOLID
  5
BF
330
BA
100
AcDbEntity
  8
LAYER_1
 62
     1
100
AcDbTrace
 10
11.90127801232868
 20
-10.29570930202802
 30
0.0
 11
11.89388534757826
 21
-10.14604012171427
 31
0.0
 12
11.90127801232868
 22
-10.11728896697362
 32
0.0
 13
11.90127801232868
 23
-10.11728896697362
 33
0.0
  0
SOLID
  5
C0
330
BA
100
AcDbEntity
  8
LAYER_1
 62
     1
100
AcDbTrace
 10
11.90127801232868
 20
-10.29570930202802
 30
0.0
 11
11.90127801232868
 21
-10.11728896697362
 31
0.0
 12
11.91136635674371
 22
-10.32327122158474
 32
0.0
 13
11.91136635674371
 23
-10.32327122158474
 33
0.0
  0
SOLID
  5
C1
330
BA
100
AcDbEntity
  8
LAYER_1
 62
     1
100
AcDbTrace
 10
11.91136635674371
 20
-10.32327122158474
 30
0.0
 11
11.90127801232868
 21
-10.11728896697362
 31
0.0
 12
11.91136635674371
 22
-10.08972549438477
 32
0.0
 13
11.91136635674371
 23
-10.08972549438477
 33
0.0
  0
SOLID
  5
C2
330
BA
100
AcDbEntity
  8
LAYER_1
 62
     1
100
AcDbTrace
 10
11.91136635674371
 20
-10.32327122158474
 30
0.0
 11
11.91136635674371
 21
-10.08972549438477
 31
0.0
 12
11.92399958107206
 22
-10.34949489765697
 32
0.0
 13
11.92399958107206
 23
-10.34949489765697
 33
0.0
  0
SOLID
  5
C3
330
BA
100
AcDbEntity
  8
LAYER_1
 62
     1
100
AcDbTrace
 10
11.92399958107206
 20
-10.34949489765697
 30
0.0
 11
11.91136635674371
 21
-10.08972549438477
 31
0.0
 12
11.92399958107206
 22
-10.06350050369898
 32
0.0
 13
11.92399958107206
 23
-10.06350050369898
 33
0.0
  0
SOLID
  5
C4
330
BA
100
AcDbEntity
  8
LAYER_1
 62
     1
100
AcDbTrace
 10
11.92399958107206
 20
-10.34949489765697
 30
0.0
 11
11.92399958107206
 21
-10.06350050369898
 31
0.0
 12
11.93902688556247
 22
-10.3742295106252
 32
0.0
 13
11.93902688556247
 23
-10.3742295106252
 33
0.0
  0
SOLID
  5
C5
330
BA
100
AcDbEntity
  8
LAYER_1
 62
     1
100
AcDbTrace
 10
11.93902688556247
 20
-10.3742295106252
 30
0.0
 11
11.92399958107206
 21
-10.06350050369898
 31
0.0
 12
11.93902688556247
 22
-10.03876479466756
 32
0.0
 13
11.93902688556247
 23
-10.03876479466756
 33
0.0
  0
SOLID
  5
C6
330
BA
100
AcDbEntity
  8
LAYER_1
 62
     1
100
AcDbTrace
 10
11.93902688556247
 20
-10.3742295106252
 30
0.0
 11
11.93902688556247
 21
-10.03876479466756
 31
0.0
 12
11.95629747046365
 22
-10.39732424086995
 32
0.0
 13
11.95629747046365
 23
-10.39732424086995
 33
0.0
  0
SOLID
  5
C7
330
BA
100
AcDbEntity
  8
LAYER_1
 62
     1
100
AcDbTrace
 10
11.95629747046365
 20
-10.39732424086995
 30
0.0
 11
11.93902688556247
 21
-10.03876479466756
 31
0.0
 12
11.95629747046365
 22
-10.01566916704178
 32
0.0
 13
11.95629747046365
 23
-10.01566916704178
 33
0.0
  0
SOLID
  5
C8
330
BA
100
AcDbEntity
  8
LAYER_1
 62
     1
100
AcDbTrace
 10
11.95629747046365
 20
-10.39732424086995
 30
0.0
 11
11.95629747046365
 21
-10.01566916704178
 31
0.0
 12
11.9756605360243
 22
-10.4186282687717
 32
0.0
 13
11.9756605360243
 23
-10.4186282687717
 33
0.0
  0
SOLID
  5
C9
330
BA
100
AcDbEntity
  8
LAYER_1
 62
     1
100
AcDbTrace
 10
11.9756605360243
 20
-10.4186282687717
 30
0.0
 11
11.95629747046365
 21
-10.01566916704178
 31
0.0
 12
11.9756605360243
 22
-9.994364420572916
 32
0.0
 13
11.9756605360243
 23
-9.994364420572916
 33
0.0
  0
SOLID
  5
CA
330
BA
100
AcDbEntity
  8
LAYER_1
 62
     1
100
AcDbTrace
 10
11.9756605360243
 20
-10.4186282687717
 30
0.0
 11
11.9756605360243
 21
-9.994364420572916
 31
0.0
 12
11.99696528249317
 22
-10.43799077471097
 32
0.0
 13
11.99696528249317
 23
-10.43799077471097
 33
0.0
  0
SOLID
  5
CB
330
BA
100
AcDbEntity
  8
LAYER_1
 62
     1
100
AcDbTrace
 10
11.99696528249317
 20
-10.43799077471097
 30
0.0
 11
11.9756605360243
 21
-9.994364420572916
 31
0.0
 12
11.99696528249317
 22
-9.975001355012257
 32
0.0
 13
11.99696528249317
 23
-9.975001355012257
 33
0.0
  0
SOLID
  5
CC
330
BA
100
AcDbEntity
  8
LAYER_1
 62
     1
100
AcDbTrace
 10
11.99696528249317
 20
-10.43799077471097
 30
0.0
 11
11.99696528249317
 21
-9.975001355012257
 31
0.0
 12
12.02006091011895
 22
-10.45526093906826
 32
0.0
 13
12.02006091011895
 23
-10.45526093906826
 33
0.0
  0
SOLID
  5
CD
330
BA
100
AcDbEntity
  8
LAYER_1
 62
     1
100
AcDbTrace
 10
12.02006091011895
 20
-10.45526093906826
 30
0.0
 11
11.99696528249317
 21
-9.975001355012257
 31
0.0
 12
12.02006091011895
 22
-9.957730770111084
 32
0.0
 13
12.02006091011895
 23
-9.957730770111084
 33
0.0
  0
SOLID
  5
CE
330
BA
100
AcDbEntity
  8
LAYER_1
 62
     1
100
AcDbTrace
 10
12.02006091011895
 20
-10.45526093906826
 30
0.0
 11
12.02006091011895
 21
-9.957730770111084
 31
0.0
 12
12.04479661915037
 22
-10.47028794222408
 32
0.0
 13
12.04479661915037
 23
-10.47028794222408
 33
0.0
  0
SOLID
  5
CF
330
BA
100
AcDbEntity
  8
LAYER_1
 62
     1
100
AcDbTrace
 10
12.04479661915037
 20
-10.47028794222408
 30
0.0
 11
12.02006091011895
 21
-9.957730770111084
 31
0.0
 12
12.04479661915037
 22
-9.942703465620676
 32
0.0
 13
12.04479661915037
 23
-9.942703465620676
 33
0.0
  0
SOLID
  5
D0
330
BA
100
AcDbEntity
  8
LAYER_1
 62
     1
100
AcDbTrace
 10
12.04479661915037
 20
-10.47028794222408
 30
0.0
 11
12.04479661915037
 21
-9.942703465620676
 31
0.0
 12
12.07102160983615
 22
-10.48292096455892
 32
0.0
 13
12.07102160983615
 23
-10.48292096455892
 33
0.0
  0
SOLID
  5
D1
330
BA
100
AcDbEntity
  8
LAYER_1
 62
     1
100
AcDbTrace
 10
12.07102160983615
 20
-10.48292096455892
 30
0.0
 11
12.04479661915037
 21
-9.942703465620676
 31
0.0
 12
12.07102160983615
 22
-9.930070241292317
 32
0.0
 13
12.07102160983615
 23
-9.930070241292317
 33
0.0
  0
SOLID
  5
D2
330
BA
100
AcDbEntity
  8
LAYER_1
 62
     1
100
AcDbTrace
 10
12.07102160983615
 20
-10.48292096455892
 30
0.0
 11
12.07102160983615
 21
-9.930070241292317
 31
0.0
 12
12.09858508242501
 22
-10.49300918645329
 32
0.0
 13
12.09858508242501
 23
-10.49300918645329
 33
0.0
  0
SOLID
  5
D3
330
BA
100
AcDbEntity
  8
LAYER_1
 62
     1
100
AcDbTrace
 10
12.09858508242501
 20
-10.49300918645329
 30
0.0
 11
12.07102160983615
 21
-9.930070241292317
 31
0.0
 12
12.09858508242501
 22
-9.919981896877289
 32
0.0
 13
12.09858508242501
 23
-9.919981896877289
 33
0.0
  0
SOLID
  5
D4
330
BA
100
AcDbEntity
  8
LAYER_1
 62
     1
100
AcDbTrace
 10
12.09858508242501
 20
-10.49300918645329
 30
0.0
 11
12.09858508242501
 21
-9.919981896877289
 31
0.0
 12
12.12733623716566
 22
-10.50040178828769
 32
0.0
 13
12.12733623716566
 23
-10.50040178828769
 33
0.0
  0
SOLID
  5
D5
330
BA
100
AcDbEntity
  8
LAYER_1
 62
     1
100
AcDbTrace
 10
12.12733623716566
 20
-10.50040178828769
 30
0.0
 11
12.09858508242501
 21
-9.919981896877289
 31
0.0
 12
12.12733623716566
 22
-9.912589232126871
 32
0.0
 13
12.12733623716566
 23
-9.912589232126871
 33
0.0
  0
SOLID
  5
D6
330
BA
100
AcDbEntity
  8
LAYER_1
 62
     1
100
AcDbTrace
 10
12.12733623716566
 20
-10.50040178828769
 30
0.0
 11
12.12733623716566
 21
-9.912589232126871
 31
0.0
 12
12.15712427430683
 22
-10.50494795044263
 32
0.0
 13
12.15712427430683
 23
-10.50494795044263
 33
0.0
  0
SOLID
  5
D7
330
BA
100
AcDbEntity
  8
LAYER_1
 62
     1
100
AcDbTrace
 10
12.15712427430683
 20
-10.50494795044263
 30
0.0
 11
12.12733623716566
 21
-9.912589232126871
 31
0.0
 12
12.15712427430683
 22
-9.908043046792347
 32
0.0
 13
12.15712427430683
 23
-9.908043046792347
 33
0.0
  0
SOLID
  5
D8
330
BA
100
AcDbEntity
  8
LAYER_1
 62
     1
100
AcDbTrace
 10
12.15712427430683
 20
-10.50494795044263
 30
0.0
 11
12.15712427430683
 21
-9.908043046792347
 31
0.0
 12
12.18779839409722
 22
-10.50649685329861
 32
0.0
 13
12.18779839409722
 23
-10.50649685329861
 33
0.0
  0
SOLID
  5
D9
330
BA
100
AcDbEntity
  8
LAYER_1
 62
     1
100
AcDbTrace
 10
12.18779839409722
 20
-10.50649685329861
 30
0.0
 11
12.15712427430683
 21
-9.908043046792347
 31
0.0
 12
12.18779839409722
 22
-9.906494140625
 32
0.0
 13
12.18779839409722
 23
-9.906494140625
 33
0.0
  0
SOLID
  5
DA
330
BA
100
AcDbEntity
  8
LAYER_1
 62
     1
100
AcDbTrace
 10
-12.18779839409722
 20
-10.50649685329861
 30
0.0
 11
-12.18779839409722
 21
-9.906494140625
 31
0.0
 12
-12.21847012639046
 22
-10.50494795044263
 32
0.0
 13
-12.21847012639046
 23
-10.50494795044263
 33
0.0
210
0.0
220
0.0
230
-1.0
  0
SOLID
  5
DB
330
BA
100
AcDbEntity
  8
LAYER_1
 62
     1
100
AcDbTrace
 10
-12.21847012639046
 20
-10.50494795044263
 30
0.0
 11
-12.18779839409722
 21
-9.906494140625
 31
0.0
 12
-12.21847012639046
 22
-9.908043046792347
 32
0.0
 13
-12.21847012639046
 23
-9.908043046792347
 33
0.0
210
0.0
220
0.0
230
-1.0
  0
SOLID
  5
DC
330
BA
100
AcDbEntity
  8
LAYER_1
 62
     1
100
AcDbTrace
 10
-12.21847012639046
 20
-10.50494795044263
 30
0.0
 11
-12.21847012639046
 21
-9.908043046792347
 31
0.0
 12
-12.24825607405768
 22
-10.50040178828769
 32
0.0
 13
-12.24825607405768
 23
-10.50040178828769
 33
0.0
210
0.0
220
0.0
230
-1.0
  0
SOLID
  5
DD
330
BA
100
AcDbEntity
  8
LAYER_1
 62
     1
100
AcDbTrace
 10
-12.24825607405768
 20
-10.50040178828769
 30
0.0
 11
-12.21847012639046
 21
-9.908043046792347
 31
0.0
 12
-12.24825607405768
 22
-9.912589232126871
 32
0.0
 13
-12.24825607405768
 23
-9.912589232126871
 33
0.0
210
0.0
220
0.0
230
-1.0
  0
SOLID
  5
DE
330
BA
100
AcDbEntity
  8
LAYER_1
 62
     1
100
AcDbTrace
 10
-12.24825607405768
 20
-10.50040178828769
 30
0.0
 11
-12.24825607405768
 21
-9.912589232126871
 31
0.0
 12
-12.27700541747941
 22
-10.49300918645329
 32
0.0
 13
-12.27700541747941
 23
-10.49300918645329
 33
0.0
210
0.0
220
0.0
230
-1.0
  0
SOLID
  5
DF
330
BA
100
AcDbEntity
  8
LAYER_1
 62
     1
100
AcDbTrace
 10
-12.27700541747941
 20
-10.49300918645329
 30
0.0
 11
-12.24825607405768
 21
-9.912589232126871
 31
0.0
 12
-12.27700541747941
 22
-9.919981896877289
 32
0.0
 13
-12.27700541747941
 23
-9.919981896877289
 33
0.0
210
0.0
220
0.0
230
-1.0
  0
SOLID
  5
E0
330
BA
100
AcDbEntity
  8
LAYER_1
 62
     1
100
AcDbTrace
 10
-12.27700541747941
 20
-10.49300918645329
 30
0.0
 11
-12.27700541747941
 21
-9.919981896877289
 31
0.0
 12
-12.30456733703613
 22
-10.48292096455892
 32
0.0
 13
-12.30456733703613
 23
-10.48292096455892
 33
0.0
210
0.0
220
0.0
230
-1.0
  0
SOLID
  5
E1
330
BA
100
AcDbEntity
  8
LAYER_1
 62
     1
100
AcDbTrace
 10
-12.30456733703613
 20
-10.48292096455892
 30
0.0
 11
-12.27700541747941
 21
-9.919981896877289
 31
0.0
 12
-12.30456733703613
 22
-9.930070241292317
 32
0.0
 13
-12.30456733703613
 23
-9.930070241292317
 33
0.0
210
0.0
220
0.0
230
-1.0
  0
SOLID
  5
E2
330
BA
100
AcDbEntity
  8
LAYER_1
 62
     1
100
AcDbTrace
 10
-12.30456733703613
 20
-10.48292096455892
 30
0.0
 11
-12.30456733703613
 21
-9.930070241292317
 31
0.0
 12
-12.33079101310836
 22
-10.47028794222408
 32
0.0
 13
-12.33079101310836
 23
-10.47028794222408
 33
0.0
210
0.0
220
0.0
230
-1.0
  0
SOLID
  5
E3
330
BA
100
AcDbEntity
  8
LAYER_1
 62
     1
100
AcDbTrace
 10
-12.33079101310836
 20
-10.47028794222408
 30
0.0
 11
-12.30456733703613
 21
-9.930070241292317
 31
0.0
 12
-12.33079101310836
 22
-9.942703465620676
 32
0.0
 13
-12.33079101310836
 23
-9.942703465620676
 33
0.0
210
0.0
220
0.0
230
-1.0
  0
SOLID
  5
E4
330
BA
100
AcDbEntity
  8
LAYER_1
 62
     1
100
AcDbTrace
 10
-12.33079101310836
 20
-10.47028794222408
 30
0.0
 11
-12.33079101310836
 21
-9.942703465620676
 31
0.0
 12
-12.35552562607659
 22
-10.45526093906826
 32
0.0
 13
-12.35552562607659
 23
-10.45526093906826
 33
0.0
210
0.0
220
0.0
230
-1.0
  0
SOLID
  5
E5
330
BA
100
AcDbEntity
  8
LAYER_1
 62
     1
100
AcDbTrace
 10
-12.35552562607659
 20
-10.45526093906826
 30
0.0
 11
-12.33079101310836
 21
-9.942703465620676
 31
0.0
 12
-12.35552562607659
 22
-9.957730770111084
 32
0.0
 13
-12.35552562607659
 23
-9.957730770111084
 33
0.0
210
0.0
220
0.0
230
-1.0
  0
SOLID
  5
E6
330
BA
100
AcDbEntity
  8
LAYER_1
 62
     1
100
AcDbTrace
 10
-12.35552562607659
 20
-10.45526093906826
 30
0.0
 11
-12.35552562607659
 21
-9.957730770111084
 31
0.0
 12
-12.37862035632133
 22
-10.43799077471097
 32
0.0
 13
-12.37862035632133
 23
-10.43799077471097
 33
0.0
210
0.0
220
0.0
230
-1.0
  0
SOLID
  5
E7
330
BA
100
AcDbEntity
  8
LAYER_1
 62
     1
100
AcDbTrace
 10
-12.37862035632133
 20
-10.43799077471097
 30
0.0
 11
-12.35552562607659
 21
-9.957730770111084
 31
0.0
 12
-12.37862035632133
 22
-9.975001355012257
 32
0.0
 13
-12.37862035632133
 23
-9.975001355012257
 33
0.0
210
0.0
220
0.0
230
-1.0
  0
SOLID
  5
E8
330
BA
100
AcDbEntity
  8
LAYER_1
 62
     1
100
AcDbTrace
 10
-12.37862035632133
 20
-10.43799077471097
 30
0.0
 11
-12.37862035632133
 21
-9.975001355012257
 31
0.0
 12
-12.39992438422309
 22
-10.4186282687717
 32
0.0
 13
-12.39992438422309
 23
-10.4186282687717
 33
0.0
210
0.0
220
0.0
230
-1.0
  0
SOLID
  5
E9
330
BA
100
AcDbEntity
  8
LAYER_1
 62
     1
100
AcDbTrace
 10
-12.39992438422309
 20
-10.4186282687717
 30
0.0
 11
-12.37862035632133
 21
-9.975001355012257
 31
0.0
 12
-12.39992438422309
 22
-9.994364420572916
 32
0.0
 13
-12.39992438422309
 23
-9.994364420572916
 33
0.0
210
0.0
220
0.0
230
-1.0
  0
SOLID
  5
EA
330
BA
100
AcDbEntity
  8
LAYER_1
 62
     1
100
AcDbTrace
 10
-12.39992438422309
 20
-10.4186282687717
 30
0.0
 11
-12.39992438422309
 21
-9.994364420572916
 31
0.0
 12
-12.41928689016236
 22
-10.39732424086995
 32
0.0
 13
-12.41928689016236
 23
-10.39732424086995
 33
0.0
210
0.0
220
0.0
230
-1.0
  0
SOLID
  5
EB
330
BA
100
AcDbEntity
  8
LAYER_1
 62
     1
100
AcDbTrace
 10
-12.41928689016236
 20
-10.39732424086995
 30
0.0
 11
-12.39992438422309
 21
-9.994364420572916
 31
0.0
 12
-12.41928689016236
 22
-10.01566916704178
 32
0.0
 13
-12.41928689016236
 23
-10.01566916704178
 33
0.0
210
0.0
220
0.0
230
-1.0
  0
SOLID
  5
EC
330
BA
100
AcDbEntity
  8
LAYER_1
 62
     1
100
AcDbTrace
 10
-12.41928689016236
 20
-10.39732424086995
 30
0.0
 11
-12.41928689016236
 21
-10.01566916704178
 31
0.0
 12
-12.43655705451965
 22
-10.3742295106252
 32
0.0
 13
-12.43655705451965
 23
-10.3742295106252
 33
0.0
210
0.0
220
0.0
230
-1.0
  0
SOLID
  5
ED
330
BA
100
AcDbEntity
  8
LAYER_1
 62
     1
100
AcDbTrace
 10
-12.43655705451965
 20
-10.3742295106252
 30
0.0
 11
-12.41928689016236
 21
-10.01566916704178
 31
0.0
 12
-12.43655705451965
 22
-10.03876479466756
 32
0.0
 13
-12.43655705451965
 23
-10.03876479466756
 33
0.0
210
0.0
220
0.0
230
-1.0
  0
SOLID
  5
EE
330
BA
100
AcDbEntity
  8
LAYER_1
 62
     1
100
AcDbTrace
 10
-12.43655705451965
 20
-10.3742295106252
 30
0.0
 11
-12.43655705451965
 21
-10.03876479466756
 31
0.0
 12
-12.45158405767547
 22
-10.34949489765697
 32
0.0
 13
-12.45158405767547
 23
-10.34949489765697
 33
0.0
210
0.0
220
0.0
230
-1.0
  0
SOLID
  5
EF
330
BA
100
AcDbEntity
  8
LAYER_1
 62
     1
100
AcDbTrace
 10
-12.45158405767547
 20
-10.34949489765697
 30
0.0
 11
-12.43655705451965
 21
-10.03876479466756
 31
0.0
 12
-12.45158405767547
 22
-10.06350050369898
 32
0.0
 13
-12.45158405767547
 23
-10.06350050369898
 33
0.0
210
0.0
220
0.0
230
-1.0
  0
SOLID
  5
F0
330
BA
100
AcDbEntity
  8
LAYER_1
 62
     1
100
AcDbTrace
 10
-12.45158405767547
 20
-10.34949489765697
 30
0.0
 11
-12.45158405767547
 21
-10.06350050369898
 31
0.0
 12
-12.46421708001031
 22
-10.32327122158474
 32
0.0
 13
-12.46421708001031
 23
-10.32327122158474
 33
0.0
210
0.0
220
0.0
230
-1.0
  0
SOLID
  5
F1
330
BA
100
AcDbEntity
  8
LAYER_1
 62
     1
100
AcDbTrace
 10
-12.46421708001031
 20
-10.32327122158474
 30
0.0
 11
-12.45158405767547
 21
-10.06350050369898
 31
0.0
 12
-12.46421708001031
 22
-10.08972549438477
 32
0.0
 13
-12.46421708001031
 23
-10.08972549438477
 33
0.0
210
0.0
220
0.0
230
-1.0
  0
SOLID
  5
F2
330
BA
100
AcDbEntity
  8
LAYER_1
 62
     1
100
AcDbTrace
 10
-12.46421708001031
 20
-10.32327122158474
 30
0.0
 11
-12.46421708001031
 21
-10.08972549438477
 31
0.0
 12
-12.47430530190468
 22
-10.29570930202802
 32
0.0
 13
-12.47430530190468
 23
-10.29570930202802
 33
0.0
210
0.0
220
0.0
230
-1.0
  0
SOLID
  5
F3
330
BA
100
AcDbEntity
  8
LAYER_1
 62
     1
100
AcDbTrace
 10
-12.47430530190468
 20
-10.29570930202802
 30
0.0
 11
-12.46421708001031
 21
-10.08972549438477
 31
0.0
 12
-12.47430530190468
 22
-10.11728896697362
 32
0.0
 13
-12.47430530190468
 23
-10.11728896697362
 33
0.0
210
0.0
220
0.0
230
-1.0
  0
SOLID
  5
F4
330
BA
100
AcDbEntity
  8
LAYER_1
 62
     1
100
AcDbTrace
 10
-12.47430530190468
 20
-10.29570930202802
 30
0.0
 11
-12.47430530190468
 21
-10.11728896697362
 31
0.0
 12
-12.48169790373908
 22
-10.2669599586063
 32
0.0
 13
-12.48169790373908
 23
-10.2669599586063
 33
0.0
210
0.0
220
0.0
230
-1.0
  0
SOLID
  5
F5
330
BA
100
AcDbEntity
  8
LAYER_1
 62
     1
100
AcDbTrace
 10
-12.48169790373908
 20
-10.2669599586063
 30
0.0
 11
-12.47430530190468
 21
-10.11728896697362
 31
0.0
 12
-12.48169790373908
 22
-10.14604012171427
 32
0.0
 13
-12.48169790373908
 23
-10.14604012171427
 33
0.0
210
0.0
220
0.0
230
-1.0
  0
SOLID
  5
F6
330
BA
100
AcDbEntity
  8
LAYER_1
 62
     1
100
AcDbTrace
 10
-12.48169790373908
 20
-10.2669599586063
 30
0.0
 11
-12.48169790373908
 21
-10.14604012171427
 31
0.0
 12
-12.48624406589402
 22
-10.23717401093907
 32
0.0
 13
-12.48624406589402
 23
-10.23717401093907
 33
0.0
210
0.0
220
0.0
230
-1.0
  0
SOLID
  5
F7
330
BA
100
AcDbEntity
  8
LAYER_1
 62
     1
100
AcDbTrace
 10
-12.48624406589402
 20
-10.23717401093907
 30
0.0
 11
-12.48169790373908
 21
-10.14604012171427
 31
0.0
 12
-12.48624406589402
 22
-10.17582815885544
 32
0.0
 13
-12.48624406589402
 23
-10.17582815885544
 33
0.0
210
0.0
220
0.0
230
-1.0
  0
SOLID
  5
F8
330
BA
100
AcDbEntity
  8
LAYER_1
 62
     1
100
AcDbTrace
 10
-12.48624406589402
 20
-10.23717401093907
 30
0.0
 11
-12.48624406589402
 21
-10.17582815885544
 31
0.0
 12
-12.48779296875
 22
-10.20650227864583
 32
0.0
 13
-12.48779296875
 23
-10.20650227864583
 33
0.0
210
0.0
220
0.0
230
-1.0
  0
ENDBLK
  5
FA
330
BA
100
AcDbEntity
  8
0
100
AcDbBlockEnd
  0
BLOCK
  5
13A
330
FB
100
AcDbEntity
  8
0
100
AcDbBlockBegin
  2
*U12
 70
     1
 71
     0
 10
0.0
 20
0.0
 30
0.0
  3
*U12
  1

  0
SOLID
  5
FC
330
FB
100
AcDbEntity
  8
LAYER_1
 62
     1
100
AcDbTrace
 10
2.513755859600173
 20
-10.23717401093907
 30
0.0
 11
2.51220703125
 21
-10.20650227864583
 31
0.0
 12
2.513755859600173
 22
-10.17582815885544
 32
0.0
 13
2.513755859600173
 23
-10.17582815885544
 33
0.0
  0
SOLID
  5
FD
330
FB
100
AcDbEntity
  8
LAYER_1
 62
     1
100
AcDbTrace
 10
2.513755859600173
 20
-10.23717401093907
 30
0.0
 11
2.513755859600173
 21
-10.17582815885544
 31
0.0
 12
2.518301818105909
 22
-10.2669599586063
 32
0.0
 13
2.518301818105909
 23
-10.2669599586063
 33
0.0
  0
SOLID
  5
FE
330
FB
100
AcDbEntity
  8
LAYER_1
 62
     1
100
AcDbTrace
 10
2.518301818105909
 20
-10.2669599586063
 30
0.0
 11
2.513755859600173
 21
-10.17582815885544
 31
0.0
 12
2.518301818105909
 22
-10.14604012171427
 32
0.0
 13
2.518301818105909
 23
-10.14604012171427
 33
0.0
  0
SOLID
  5
FF
330
FB
100
AcDbEntity
  8
LAYER_1
 62
     1
100
AcDbTrace
 10
2.518301818105909
 20
-10.2669599586063
 30
0.0
 11
2.518301818105909
 21
-10.14604012171427
 31
0.0
 12
2.525694116950035
 22
-10.29570930202802
 32
0.0
 13
2.525694116950035
 23
-10.29570930202802
 33
0.0
  0
SOLID
  5
100
330
FB
100
AcDbEntity
  8
LAYER_1
 62
     1
100
AcDbTrace
 10
2.525694116950035
 20
-10.29570930202802
 30
0.0
 11
2.518301818105909
 21
-10.14604012171427
 31
0.0
 12
2.525694116950035
 22
-10.11728896697362
 32
0.0
 13
2.525694116950035
 23
-10.11728896697362
 33
0.0
  0
SOLID
  5
101
330
FB
100
AcDbEntity
  8
LAYER_1
 62
     1
100
AcDbTrace
 10
2.525694116950035
 20
-10.29570930202802
 30
0.0
 11
2.525694116950035
 21
-10.11728896697362
 31
0.0
 12
2.535781966315375
 22
-10.32327122158474
 32
0.0
 13
2.535781966315375
 23
-10.32327122158474
 33
0.0
  0
SOLID
  5
102
330
FB
100
AcDbEntity
  8
LAYER_1
 62
     1
100
AcDbTrace
 10
2.535781966315375
 20
-10.32327122158474
 30
0.0
 11
2.525694116950035
 21
-10.11728896697362
 31
0.0
 12
2.535781966315375
 22
-10.08972549438477
 32
0.0
 13
2.535781966315375
 23
-10.08972549438477
 33
0.0
  0
SOLID
  5
103
330
FB
100
AcDbEntity
  8
LAYER_1
 62
     1
100
AcDbTrace
 10
2.535781966315375
 20
-10.32327122158474
 30
0.0
 11
2.535781966315375
 21
-10.08972549438477
 31
0.0
 12
2.548414576384756
 22
-10.34949489765697
 32
0.0
 13
2.548414576384756
 23
-10.34949489765697
 33
0.0
  0
SOLID
  5
104
330
FB
100
AcDbEntity
  8
LAYER_1
 62
     1
100
AcDbTrace
 10
2.548414576384756
 20
-10.34949489765697
 30
0.0
 11
2.535781966315375
 21
-10.08972549438477
 31
0.0
 12
2.548414576384756
 22
-10.06350050369898
 32
0.0
 13
2.548414576384756
 23
-10.06350050369898
 33
0.0
  0
SOLID
  5
105
330
FB
100
AcDbEntity
  8
LAYER_1
 62
     1
100
AcDbTrace
 10
2.548414576384756
 20
-10.34949489765697
 30
0.0
 11
2.548414576384756
 21
-10.06350050369898
 31
0.0
 12
2.563441157341003
 22
-10.3742295106252
 32
0.0
 13
2.563441157341003
 23
-10.3742295106252
 33
0.0
  0
SOLID
  5
106
330
FB
100
AcDbEntity
  8
LAYER_1
 62
     1
100
AcDbTrace
 10
2.563441157341003
 20
-10.3742295106252
 30
0.0
 11
2.548414576384756
 21
-10.06350050369898
 31
0.0
 12
2.563441157341003
 22
-10.03876479466756
 32
0.0
 13
2.563441157341003
 23
-10.03876479466756
 33
0.0
  0
SOLID
  5
107
330
FB
100
AcDbEntity
  8
LAYER_1
 62
     1
100
AcDbTrace
 10
2.563441157341003
 20
-10.3742295106252
 30
0.0
 11
2.563441157341003
 21
-10.03876479466756
 31
0.0
 12
2.580710919366942
 22
-10.39732424086995
 32
0.0
 13
2.580710919366942
 23
-10.39732424086995
 33
0.0
  0
SOLID
  5
108
330
FB
100
AcDbEntity
  8
LAYER_1
 62
     1
100
AcDbTrace
 10
2.580710919366942
 20
-10.39732424086995
 30
0.0
 11
2.563441157341003
 21
-10.03876479466756
 31
0.0
 12
2.580710919366942
 22
-10.01566916704178
 32
0.0
 13
2.580710919366942
 23
-10.01566916704178
 33
0.0
  0
SOLID
  5
109
330
FB
100
AcDbEntity
  8
LAYER_1
 62
     1
100
AcDbTrace
 10
2.580710919366942
 20
-10.39732424086995
 30
0.0
 11
2.580710919366942
 21
-10.01566916704178
 31
0.0
 12
2.600073072645399
 22
-10.4186282687717
 32
0.0
 13
2.600073072645399
 23
-10.4186282687717
 33
0.0
  0
SOLID
  5
10A
330
FB
100
AcDbEntity
  8
LAYER_1
 62
     1
100
AcDbTrace
 10
2.600073072645399
 20
-10.4186282687717
 30
0.0
 11
2.580710919366942
 21
-10.01566916704178
 31
0.0
 12
2.600073072645399
 22
-9.994364420572916
 32
0.0
 13
2.600073072645399
 23
-9.994364420572916
 33
0.0
  0
SOLID
  5
10B
330
FB
100
AcDbEntity
  8
LAYER_1
 62
     1
100
AcDbTrace
 10
2.600073072645399
 20
-10.4186282687717
 30
0.0
 11
2.600073072645399
 21
-9.994364420572916
 31
0.0
 12
2.6213768273592
 22
-10.43799077471097
 32
0.0
 13
2.6213768273592
 23
-10.43799077471097
 33
0.0
  0
SOLID
  5
10C
330
FB
100
AcDbEntity
  8
LAYER_1
 62
     1
100
AcDbTrace
 10
2.6213768273592
 20
-10.43799077471097
 30
0.0
 11
2.600073072645399
 21
-9.994364420572916
 31
0.0
 12
2.6213768273592
 22
-9.975001355012257
 32
0.0
 13
2.6213768273592
 23
-9.975001355012257
 33
0.0
  0
SOLID
  5
10D
330
FB
100
AcDbEntity
  8
LAYER_1
 62
     1
100
AcDbTrace
 10
2.6213768273592
 20
-10.43799077471097
 30
0.0
 11
2.6213768273592
 21
-9.975001355012257
 31
0.0
 12
2.644471393691169
 22
-10.45526093906826
 32
0.0
 13
2.644471393691169
 23
-10.45526093906826
 33
0.0
  0
SOLID
  5
10E
330
FB
100
AcDbEntity
  8
LAYER_1
 62
     1
100
AcDbTrace
 10
2.644471393691169
 20
-10.45526093906826
 30
0.0
 11
2.6213768273592
 21
-9.975001355012257
 31
0.0
 12
2.644471393691169
 22
-9.957730770111084
 32
0.0
 13
2.644471393691169
 23
-9.957730770111084
 33
0.0
  0
SOLID
  5
10F
330
FB
100
AcDbEntity
  8
LAYER_1
 62
     1
100
AcDbTrace
 10
2.644471393691169
 20
-10.45526093906826
 30
0.0
 11
2.644471393691169
 21
-9.957730770111084
 31
0.0
 12
2.669205981824133
 22
-10.47028794222408
 32
0.0
 13
2.669205981824133
 23
-10.47028794222408
 33
0.0
  0
SOLID
  5
110
330
FB
100
AcDbEntity
  8
LAYER_1
 62
     1
100
AcDbTrace
 10
2.669205981824133
 20
-10.47028794222408
 30
0.0
 11
2.644471393691169
 21
-9.957730770111084
 31
0.0
 12
2.669205981824133
 22
-9.942703465620676
 32
0.0
 13
2.669205981824133
 23
-9.942703465620676
 33
0.0
  0
SOLID
  5
111
330
FB
100
AcDbEntity
  8
LAYER_1
 62
     1
100
AcDbTrace
 10
2.669205981824133
 20
-10.47028794222408
 30
0.0
 11
2.669205981824133
 21
-9.942703465620676
 31
0.0
 12
2.695429801940918
 22
-10.48292096455892
 32
0.0
 13
2.695429801940918
 23
-10.48292096455892
 33
0.0
  0
SOLID
  5
112
330
FB
100
AcDbEntity
  8
LAYER_1
 62
     1
100
AcDbTrace
 10
2.695429801940918
 20
-10.48292096455892
 30
0.0
 11
2.669205981824133
 21
-9.942703465620676
 31
0.0
 12
2.695429801940918
 22
-9.930070241292317
 32
0.0
 13
2.695429801940918
 23
-9.930070241292317
 33
0.0
  0
SOLID
  5
113
330
FB
100
AcDbEntity
  8
LAYER_1
 62
     1
100
AcDbTrace
 10
2.695429801940918
 20
-10.48292096455892
 30
0.0
 11
2.695429801940918
 21
-9.930070241292317
 31
0.0
 12
2.722992064224349
 22
-10.49300918645329
 32
0.0
 13
2.722992064224349
 23
-10.49300918645329
 33
0.0
  0
SOLID
  5
114
330
FB
100
AcDbEntity
  8
LAYER_1
 62
     1
100
AcDbTrace
 10
2.722992064224349
 20
-10.49300918645329
 30
0.0
 11
2.695429801940918
 21
-9.930070241292317
 31
0.0
 12
2.722992064224349
 22
-9.919981896877289
 32
0.0
 13
2.722992064224349
 23
-9.919981896877289
 33
0.0
  0
SOLID
  5
115
330
FB
100
AcDbEntity
  8
LAYER_1
 62
     1
100
AcDbTrace
 10
2.722992064224349
 20
-10.49300918645329
 30
0.0
 11
2.722992064224349
 21
-9.919981896877289
 31
0.0
 12
2.751741978857252
 22
-10.50040178828769
 32
0.0
 13
2.751741978857252
 23
-10.50040178828769
 33
0.0
  0
SOLID
  5
116
330
FB
100
AcDbEntity
  8
LAYER_1
 62
     1
100
AcDbTrace
 10
2.751741978857252
 20
-10.50040178828769
 30
0.0
 11
2.722992064224349
 21
-9.919981896877289
 31
0.0
 12
2.751741978857252
 22
-9.912589232126871
 32
0.0
 13
2.751741978857252
 23
-9.912589232126871
 33
0.0
  0
SOLID
  5
117
330
FB
100
AcDbEntity
  8
LAYER_1
 62
     1
100
AcDbTrace
 10
2.751741978857252
 20
-10.50040178828769
 30
0.0
 11
2.751741978857252
 21
-9.912589232126871
 31
0.0
 12
2.781528756022454
 22
-10.50494795044263
 32
0.0
 13
2.781528756022454
 23
-10.50494795044263
 33
0.0
  0
SOLID
  5
118
330
FB
100
AcDbEntity
  8
LAYER_1
 62
     1
100
AcDbTrace
 10
2.781528756022454
 20
-10.50494795044263
 30
0.0
 11
2.751741978857252
 21
-9.912589232126871
 31
0.0
 12
2.781528756022454
 22
-9.908043046792347
 32
0.0
 13
2.781528756022454
 23
-9.908043046792347
 33
0.0
  0
SOLID
  5
119
330
FB
100
AcDbEntity
  8
LAYER_1
 62
     1
100
AcDbTrace
 10
2.781528756022454
 20
-10.50494795044263
 30
0.0
 11
2.781528756022454
 21
-9.908043046792347
 31
0.0
 12
2.812201605902778
 22
-10.50649685329861
 32
0.0
 13
2.812201605902778
 23
-10.50649685329861
 33
0.0
  0
SOLID
  5
11A
330
FB
100
AcDbEntity
  8
LAYER_1
 62
     1
100
AcDbTrace
 10
2.812201605902778
 20
-10.50649685329861
 30
0.0
 11
2.781528756022454
 21
-9.908043046792347
 31
0.0
 12
2.812201605902778
 22
-9.906494140625
 32
0.0
 13
2.812201605902778
 23
-9.906494140625
 33
0.0
  0
SOLID
  5
11B
330
FB
100
AcDbEntity
  8
LAYER_1
 62
     1
100
AcDbTrace
 10
-2.812201605902778
 20
-10.50649685329861
 30
0.0
 11
-2.812201605902778
 21
-9.906494140625
 31
0.0
 12
-2.842875649531682
 22
-10.50494795044263
 32
0.0
 13
-2.842875649531682
 23
-10.50494795044263
 33
0.0
210
0.0
220
0.0
230
-1.0
  0
SOLID
  5
11C
330
FB
100
AcDbEntity
  8
LAYER_1
 62
     1
100
AcDbTrace
 10
-2.842875649531682
 20
-10.50494795044263
 30
0.0
 11
-2.812201605902778
 21
-9.906494140625
 31
0.0
 12
-2.842875649531682
 22
-9.908043046792347
 32
0.0
 13
-2.842875649531682
 23
-9.908043046792347
 33
0.0
210
0.0
220
0.0
230
-1.0
  0
SOLID
  5
11D
330
FB
100
AcDbEntity
  8
LAYER_1
 62
     1
100
AcDbTrace
 10
-2.842875649531682
 20
-10.50494795044263
 30
0.0
 11
-2.842875649531682
 21
-9.908043046792347
 31
0.0
 12
-2.872663471433851
 22
-10.50040178828769
 32
0.0
 13
-2.872663471433851
 23
-10.50040178828769
 33
0.0
210
0.0
220
0.0
230
-1.0
  0
SOLID
  5
11E
330
FB
100
AcDbEntity
  8
LAYER_1
 62
     1
100
AcDbTrace
 10
-2.872663471433851
 20
-10.50040178828769
 30
0.0
 11
-2.842875649531682
 21
-9.908043046792347
 31
0.0
 12
-2.872663471433851
 22
-9.912589232126871
 32
0.0
 13
-2.872663471433851
 23
-9.912589232126871
 33
0.0
210
0.0
220
0.0
230
-1.0
  0
SOLID
  5
11F
330
FB
100
AcDbEntity
  8
LAYER_1
 62
     1
100
AcDbTrace
 10
-2.872663471433851
 20
-10.50040178828769
 30
0.0
 11
-2.872663471433851
 21
-9.912589232126871
 31
0.0
 12
-2.901414291726218
 22
-10.49300918645329
 32
0.0
 13
-2.901414291726218
 23
-10.49300918645329
 33
0.0
210
0.0
220
0.0
230
-1.0
  0
SOLID
  5
120
330
FB
100
AcDbEntity
  8
LAYER_1
 62
     1
100
AcDbTrace
 10
-2.901414291726218
 20
-10.49300918645329
 30
0.0
 11
-2.872663471433851
 21
-9.912589232126871
 31
0.0
 12
-2.901414291726218
 22
-9.919981896877289
 32
0.0
 13
-2.901414291726218
 23
-9.919981896877289
 33
0.0
210
0.0
220
0.0
230
-1.0
  0
SOLID
  5
121
330
FB
100
AcDbEntity
  8
LAYER_1
 62
     1
100
AcDbTrace
 10
-2.901414291726218
 20
-10.49300918645329
 30
0.0
 11
-2.901414291726218
 21
-9.919981896877289
 31
0.0
 12
-2.928977330525716
 22
-10.48292096455892
 32
0.0
 13
-2.928977330525716
 23
-10.48292096455892
 33
0.0
210
0.0
220
0.0
230
-1.0
  0
SOLID
  5
122
330
FB
100
AcDbEntity
  8
LAYER_1
 62
     1
100
AcDbTrace
 10
-2.928977330525716
 20
-10.48292096455892
 30
0.0
 11
-2.901414291726218
 21
-9.919981896877289
 31
0.0
 12
-2.928977330525716
 22
-9.930070241292317
 32
0.0
 13
-2.928977330525716
 23
-9.930070241292317
 33
0.0
210
0.0
220
0.0
230
-1.0
  0
SOLID
  5
123
330
FB
100
AcDbEntity
  8
LAYER_1
 62
     1
100
AcDbTrace
 10
-2.928977330525716
 20
-10.48292096455892
 30
0.0
 11
-2.928977330525716
 21
-9.930070241292317
 31
0.0
 12
-2.955201807949278
 22
-10.47028794222408
 32
0.0
 13
-2.955201807949278
 23
-10.47028794222408
 33
0.0
210
0.0
220
0.0
230
-1.0
  0
SOLID
  5
124
330
FB
100
AcDbEntity
  8
LAYER_1
 62
     1
100
AcDbTrace
 10
-2.955201807949278
 20
-10.47028794222408
 30
0.0
 11
-2.928977330525716
 21
-9.930070241292317
 31
0.0
 12
-2.955201807949278
 22
-9.942703465620676
 32
0.0
 13
-2.955201807949278
 23
-9.942703465620676
 33
0.0
210
0.0
220
0.0
230
-1.0
  0
SOLID
  5
125
330
FB
100
AcDbEntity
  8
LAYER_1
 62
     1
100
AcDbTrace
 10
-2.955201807949278
 20
-10.47028794222408
 30
0.0
 11
-2.955201807949278
 21
-9.942703465620676
 31
0.0
 12
-2.979936944113837
 22
-10.45526093906826
 32
0.0
 13
-2.979936944113837
 23
-10.45526093906826
 33
0.0
210
0.0
220
0.0
230
-1.0
  0
SOLID
  5
126
330
FB
100
AcDbEntity
  8
LAYER_1
 62
     1
100
AcDbTrace
 10
-2.979936944113837
 20
-10.45526093906826
 30
0.0
 11
-2.955201807949278
 21
-9.942703465620676
 31
0.0
 12
-2.979936944113837
 22
-9.957730770111084
 32
0.0
 13
-2.979936944113837
 23
-9.957730770111084
 33
0.0
210
0.0
220
0.0
230
-1.0
  0
SOLID
  5
127
330
FB
100
AcDbEntity
  8
LAYER_1
 62
     1
100
AcDbTrace
 10
-2.979936944113837
 20
-10.45526093906826
 30
0.0
 11
-2.979936944113837
 21
-9.957730770111084
 31
0.0
 12
-3.003031959136327
 22
-10.43799077471097
 32
0.0
 13
-3.003031959136327
 23
-10.43799077471097
 33
0.0
210
0.0
220
0.0
230
-1.0
  0
SOLID
  5
128
330
FB
100
AcDbEntity
  8
LAYER_1
 62
     1
100
AcDbTrace
 10
-3.003031959136327
 20
-10.43799077471097
 30
0.0
 11
-2.979936944113837
 21
-9.957730770111084
 31
0.0
 12
-3.003031959136327
 22
-9.975001355012257
 32
0.0
 13
-3.003031959136327
 23
-9.975001355012257
 33
0.0
210
0.0
220
0.0
230
-1.0
  0
SOLID
  5
129
330
FB
100
AcDbEntity
  8
LAYER_1
 62
     1
100
AcDbTrace
 10
-3.003031959136327
 20
-10.43799077471097
 30
0.0
 11
-3.003031959136327
 21
-9.975001355012257
 31
0.0
 12
-3.02433607313368
 22
-10.4186282687717
 32
0.0
 13
-3.02433607313368
 23
-10.4186282687717
 33
0.0
210
0.0
220
0.0
230
-1.0
  0
SOLID
  5
12A
330
FB
100
AcDbEntity
  8
LAYER_1
 62
     1
100
AcDbTrace
 10
-3.02433607313368
 20
-10.4186282687717
 30
0.0
 11
-3.003031959136327
 21
-9.975001355012257
 31
0.0
 12
-3.02433607313368
 22
-9.994364420572916
 32
0.0
 13
-3.02433607313368
 23
-9.994364420572916
 33
0.0
210
0.0
220
0.0
230
-1.0
  0
SOLID
  5
12B
330
FB
100
AcDbEntity
  8
LAYER_1
 62
     1
100
AcDbTrace
 10
-3.02433607313368
 20
-10.4186282687717
 30
0.0
 11
-3.02433607313368
 21
-9.994364420572916
 31
0.0
 12
-3.043698506222831
 22
-10.39732424086995
 32
0.0
 13
-3.043698506222831
 23
-10.39732424086995
 33
0.0
210
0.0
220
0.0
230
-1.0
  0
SOLID
  5
12C
330
FB
100
AcDbEntity
  8
LAYER_1
 62
     1
100
AcDbTrace
 10
-3.043698506222831
 20
-10.39732424086995
 30
0.0
 11
-3.02433607313368
 21
-9.994364420572916
 31
0.0
 12
-3.043698506222831
 22
-10.01566916704178
 32
0.0
 13
-3.043698506222831
 23
-10.01566916704178
 33
0.0
210
0.0
220
0.0
230
-1.0
  0
SOLID
  5
12D
330
FB
100
AcDbEntity
  8
LAYER_1
 62
     1
100
AcDbTrace
 10
-3.043698506222831
 20
-10.39732424086995
 30
0.0
 11
-3.043698506222831
 21
-10.01566916704178
 31
0.0
 12
-3.060968478520711
 22
-10.3742295106252
 32
0.0
 13
-3.060968478520711
 23
-10.3742295106252
 33
0.0
210
0.0
220
0.0
230
-1.0
  0
SOLID
  5
12E
330
FB
100
AcDbEntity
  8
LAYER_1
 62
     1
100
AcDbTrace
 10
-3.060968478520711
 20
-10.3742295106252
 30
0.0
 11
-3.043698506222831
 21
-10.01566916704178
 31
0.0
 12
-3.060968478520711
 22
-10.03876479466756
 32
0.0
 13
-3.060968478520711
 23
-10.03876479466756
 33
0.0
210
0.0
220
0.0
230
-1.0
  0
SOLID
  5
12F
330
FB
100
AcDbEntity
  8
LAYER_1
 62
     1
100
AcDbTrace
 10
-3.060968478520711
 20
-10.3742295106252
 30
0.0
 11
-3.060968478520711
 21
-10.03876479466756
 31
0.0
 12
-3.075995210144255
 22
-10.34949489765697
 32
0.0
 13
-3.075995210144255
 23
-10.34949489765697
 33
0.0
210
0.0
220
0.0
230
-1.0
  0
SOLID
  5
130
330
FB
100
AcDbEntity
  8
LAYER_1
 62
     1
100
AcDbTrace
 10
-3.075995210144255
 20
-10.34949489765697
 30
0.0
 11
-3.060968478520711
 21
-10.03876479466756
 31
0.0
 12
-3.075995210144255
 22
-10.06350050369898
 32
0.0
 13
-3.075995210144255
 23
-10.06350050369898
 33
0.0
210
0.0
220
0.0
230
-1.0
  0
SOLID
  5
131
330
FB
100
AcDbEntity
  8
LAYER_1
 62
     1
100
AcDbTrace
 10
-3.075995210144255
 20
-10.34949489765697
 30
0.0
 11
-3.075995210144255
 21
-10.06350050369898
 31
0.0
 12
-3.088627921210395
 22
-10.32327122158474
 32
0.0
 13
-3.088627921210395
 23
-10.32327122158474
 33
0.0
210
0.0
220
0.0
230
-1.0
  0
SOLID
  5
132
330
FB
100
AcDbEntity
  8
LAYER_1
 62
     1
100
AcDbTrace
 10
-3.088627921210395
 20
-10.32327122158474
 30
0.0
 11
-3.075995210144255
 21
-10.06350050369898
 31
0.0
 12
-3.088627921210395
 22
-10.08972549438477
 32
0.0
 13
-3.088627921210395
 23
-10.08972549438477
 33
0.0
210
0.0
220
0.0
230
-1.0
  0
SOLID
  5
133
330
FB
100
AcDbEntity
  8
LAYER_1
 62
     1
100
AcDbTrace
 10
-3.088627921210395
 20
-10.32327122158474
 30
0.0
 11
-3.088627921210395
 21
-10.08972549438477
 31
0.0
 12
-3.098715831836064
 22
-10.29570930202802
 32
0.0
 13
-3.098715831836064
 23
-10.29570930202802
 33
0.0
210
0.0
220
0.0
230
-1.0
  0
SOLID
  5
134
330
FB
100
AcDbEntity
  8
LAYER_1
 62
     1
100
AcDbTrace
 10
-3.098715831836064
 20
-10.29570930202802
 30
0.0
 11
-3.088627921210395
 21
-10.08972549438477
 31
0.0
 12
-3.098715831836064
 22
-10.11728896697362
 32
0.0
 13
-3.098715831836064
 23
-10.11728896697362
 33
0.0
210
0.0
220
0.0
230
-1.0
  0
SOLID
  5
135
330
FB
100
AcDbEntity
  8
LAYER_1
 62
     1
100
AcDbTrace
 10
-3.098715831836064
 20
-10.29570930202802
 30
0.0
 11
-3.098715831836064
 21
-10.11728896697362
 31
0.0
 12
-3.106108162138197
 22
-10.2669599586063
 32
0.0
 13
-3.106108162138197
 23
-10.2669599586063
 33
0.0
210
0.0
220
0.0
230
-1.0
  0
SOLID
  5
136
330
FB
100
AcDbEntity
  8
LAYER_1
 62
     1
100
AcDbTrace
 10
-3.106108162138197
 20
-10.2669599586063
 30
0.0
 11
-3.098715831836064
 21
-10.11728896697362
 31
0.0
 12
-3.106108162138197
 22
-10.14604012171427
 32
0.0
 13
-3.106108162138197
 23
-10.14604012171427
 33
0.0
210
0.0
220
0.0
230
-1.0
  0
SOLID
  5
137
330
FB
100
AcDbEntity
  8
LAYER_1
 62
     1
100
AcDbTrace
 10
-3.106108162138197
 20
-10.2669599586063
 30
0.0
 11
-3.106108162138197
 21
-10.14604012171427
 31
0.0
 12
-3.110654132233725
 22
-10.23717401093907
 32
0.0
 13
-3.110654132233725
 23
-10.23717401093907
 33
0.0
210
0.0
220
0.0
230
-1.0
  0
SOLID
  5
138
330
FB
100
AcDbEntity
  8
LAYER_1
 62
     1
100
AcDbTrace
 10
-3.110654132233725
 20
-10.23717401093907
 30
0.0
 11
-3.106108162138197
 21
-10.14604012171427
 31
0.0
 12
-3.110654132233725
 22
-10.17582815885544
 32
0.0
 13
-3.110654132233725
 23
-10.17582815885544
 33
0.0
210
0.0
220
0.0
230
-1.0
  0
SOLID
  5
139
330
FB
100
AcDbEntity
  8
LAYER_1
 62
     1
100
AcDbTrace
 10
-3.110654132233725
 20
-10.23717401093907
 30
0.0
 11
-3.110654132233725
 21
-10.17582815885544
 31
0.0
 12
-3.112202962239583
 22
-10.20650227864583
 32
0.0
 13
-3.112202962239583
 23
-10.20650227864583
 33
0.0
210
0.0
220
0.0
230
-1.0
  0
ENDBLK
  5
13B
330
FB
100
AcDbEntity
  8
0
100
AcDbBlockEnd
  0
ENDSEC
  0
SECTION
  2
ENTITIES
  0
INSERT
  5
3D
330
1F
100
AcDbEntity
  8
LAYER_1
100
AcDbBlockReference
  2
BLOCK_2
 10
0.0
 20
0.0
 30
0.0
  0
INSERT
  5
42
330
1F
100
AcDbEntity
  8
LAYER_1
100
AcDbBlockReference
  2
BLOCK_3
 10
0.0
 20
0.0
 30
0.0
  0
INSERT
  5
4A
330
1F
100
AcDbEntity
  8
LAYER_1
100
AcDbBlockReference
  2
BLOCK_4
 10
0.0
 20
0.0
 30
0.0
  0
INSERT
  5
52
330
1F
100
AcDbEntity
  8
LAYER_1
100
AcDbBlockReference
  2
BLOCK_5
 10
0.0
 20
0.0
 30
0.0
  0
INSERT
  5
5A
330
1F
100
AcDbEntity
  8
LAYER_1
100
AcDbBlockReference
  2
BLOCK_6
 10
0.0
 20
0.0
 30
0.0
  0
INSERT
  5
62
330
1F
100
AcDbEntity
  8
LAYER_1
100
AcDbBlockReference
  2
BLOCK_7
 10
0.0
 20
0.0
 30
0.0
  0
INSERT
  5
68
330
1F
100
AcDbEntity
  8
LAYER_1
100
AcDbBlockReference
  2
BLOCK_8
 10
0.0
 20
0.0
 30
0.0
  0
INSERT
  5
6E
330
1F
100
AcDbEntity
  8
LAYER_1
100
AcDbBlockReference
  2
BLOCK_9
 10
0.0
 20
0.0
 30
0.0
  0
INSERT
  5
74
330
1F
100
AcDbEntity
  8
LAYER_1
100
AcDbBlockReference
  2
BLOCK_10
 10
0.0
 20
0.0
 30
0.0
  0
ENDSEC
  0
SECTION
  2
OBJECTS
  0
DICTIONARY
  5
C
330
0
100
AcDbDictionary
  3
ACAD_GROUP
350
D
  3
ACAD_LAYOUT
350
1A
  3
ACAD_MLINESTYLE
350
17
  3
ACAD_PLOTSETTINGS
350
19
  3
ACAD_TABLESTYLE
350
78
  3
ACAD_VISUALSTYLE
350
2A
1001
ACAD
1000
TREAT_AS_HARD
1070
     0
  0
DICTIONARY
  5
D
102
{ACAD_REACTORS
330
C
102
}
330
C
100
AcDbDictionary
1001
ACAD
1000
TREAT_AS_HARD
1070
     0
  0
DICTIONARY
  5
1A
102
{ACAD_REACTORS
330
C
102
}
330
C
100
AcDbDictionary
1001
ACAD
1000
TREAT_AS_HARD
1070
     0
  0
DICTIONARY
  5
17
102
{ACAD_REACTORS
330
C
102
}
330
C
100
AcDbDictionary
  3
STANDARD
350
18
1001
ACAD
1000
TREAT_AS_HARD
1070
     0
  0
DICTIONARY
  5
19
102
{ACAD_REACTORS
330
C
102
}
330
C
100
AcDbDictionary
1001
ACAD
1000
TREAT_AS_HARD
1070
     0
  0
DICTIONARY
  5
78
102
{ACAD_REACTORS
330
C
102
}
330
C
100
AcDbDictionary
1001
ACAD
1000
TREAT_AS_HARD
1070
     0
  0
DICTIONARY
  5
2A
102
{ACAD_REACTORS
330
C
102
}
330
C
100
AcDbDictionary
  3
2DWIREFRAME
350
2F
  3
3DWIREFRAME
350
30
  3
3D_HIDDEN
350
31
  3
BASIC
350
32
  3
BRIGHTEN
350
36
  3
COLORCHANGE
350
3A
  3
CONCEPTUAL
350
34
  3
DIM
350
35
  3
FACEPATTERN
350
39
  3
FLAT
350
2B
  3
FLATWITHEDGES
350
2C
  3
GOURAUD
350
2D
  3
GOURAUDWITHEDGES
350
2E
  3
LINEPATTERN
350
38
  3
REALISTIC
350
33
  3
THICKEN
350
37
1001
ACAD
1000
TREAT_AS_HARD
1070
     0
  0
MLINESTYLE
  5
18
102
{ACAD_REACTORS
330
17
102
}
330
17
100
AcDbMlineStyle
  2
Standard
 70
     0
  3

 62
   256
 51
90.0
 52
90.0
 71
     2
 49
0.5
 62
   256
  6
BYLAYER
 49
-0.5
 62
   256
  6
BYLAYER
  0
VISUALSTYLE
  5
2F
102
{ACAD_REACTORS
330
2A
102
}
330
2A
100
AcDbVisualStyle
  2
2dWireframe
 70
     4
 71
     0
 72
     2
 73
     0
 90
        0
 40
-0.6
 41
-30.0
 62
     5
 63
     7
 74
     1
 91
        4
 64
     7
 65
   257
 75
     1
175
     1
 42
1.0
 92
        0
 66
   257
 43
1.0
 76
     1
 77
     6
 78
     2
 67
     7
 79
     5
170
     0
171
     0
290
     0
174
     0
 93
        1
 44
0.0
173
     0
291
     0
 45
0.0
1001
ACAD
1000
AcDbSavedByObjectVersion
1070
     0
  0
VISUALSTYLE
  5
30
102
{ACAD_REACTORS
330
2A
102
}
330
2A
100
AcDbVisualStyle
  2
3dWireframe
 70
     5
 71
     0
 72
     2
 73
     0
 90
        0
 40
-0.6
 41
-30.0
 62
     5
 63
     7
 74
     1
 91
        4
 64
     7
 65
   257
 75
     1
175
     1
 42
1.0
 92
        0
 66
   257
 43
1.0
 76
     1
 77
     6
 78
     2
 67
     7
 79
     5
170
     0
171
     0
290
     0
174
     0
 93
        1
 44
0.0
173
     0
291
     0
 45
0.0
1001
ACAD
1000
AcDbSavedByObjectVersion
1070
     0
  0
VISUALSTYLE
  5
31
102
{ACAD_REACTORS
330
2A
102
}
330
2A
100
AcDbVisualStyle
  2
3D Hidden
 70
     6
 71
     1
 72
     2
 73
     2
 90
        0
 40
-0.6
 41
-30.0
 62
     5
 63
     7
 74
     2
 91
        2
 64
     7
 65
   257
 75
     2
175
     1
 42
40.0
 92
        0
 66
   257
 43
1.0
 76
     1
 77
     6
 78
     2
 67
     7
 79
     3
170
     0
171
     0
290
     0
174
     0
 93
        1
 44
0.0
173
     0
291
     0
 45
0.0
1001
ACAD
1000
AcDbSavedByObjectVersion
1070
     0
  0
VISUALSTYLE
  5
32
102
{ACAD_REACTORS
330
2A
102
}
330
2A
100
AcDbVisualStyle
  2
Basic
 70
     7
 71
     1
 72
     0
 73
     1
 90
        0
 40
-0.6
 41
-30.0
 62
     5
 63
     7
 74
     0
 91
        4
 64
     7
 65
   257
 75
     1
175
     1
 42
1.0
 92
        8
 66
     7
 43
1.0
 76
     1
 77
     6
 78
     2
 67
     7
 79
     5
170
     0
171
     0
290
     0
174
     0
 93
        1
 44
0.0
173
     0
291
     1
 45
0.0
1001
ACAD
1000
AcDbSavedByObjectVersion
1070
     0
  0
VISUALSTYLE
  5
36
102
{ACAD_REACTORS
330
2A
102
}
330
2A
100
AcDbVisualStyle
  2
Brighten
 70
    12
 71
     2
 72
     2
 73
     0
 90
        0
 40
-0.6
 41
-30.0
 62
     5
 63
     7
 74
     1
 91
        4
 64
     7
 65
   257
 75
     1
175
     1
 42
1.0
 92
        8
 66
     7
 43
1.0
 76
     1
 77
     6
 78
     2
 67
     7
 79
     5
170
     0
171
     0
290
     0
174
     0
 93
        1
 44
50.0
173
     0
291
     1
 45
0.0
1001
ACAD
1000
AcDbSavedByObjectVersion
1070
     0
  0
VISUALSTYLE
  5
3A
102
{ACAD_REACTORS
330
2A
102
}
330
2A
100
AcDbVisualStyle
  2
ColorChange
 70
    16
 71
     2
 72
     2
 73
     3
 90
        0
 40
-0.6
 41
-30.0
 62
     5
 63
     8
 74
     1
 91
        4
 64
     7
 65
   257
 75
     1
175
     1
 42
1.0
 92
        8
 66
     8
 43
1.0
 76
     1
 77
     6
 78
     2
 67
     7
 79
     5
170
     0
171
     0
290
     0
174
     0
 93
        1
 44
0.0
173
     0
291
     1
 45
0.0
1001
ACAD
1000
AcDbSavedByObjectVersion
1070
     0
  0
VISUALSTYLE
  5
34
102
{ACAD_REACTORS
330
2A
102
}
330
2A
100
AcDbVisualStyle
  2
Conceptual
 70
     9
 71
     3
 72
     2
 73
     0
 90
        0
 40
-0.6
 41
-30.0
 62
     5
 63
     7
 74
     2
 91
        2
 64
     7
 65
   257
 75
     1
175
     1
 42
40.0
 92
        8
 66
     7
 43
1.0
 76
     1
 77
     6
 78
     2
 67
     7
 79
     3
170
     0
171
     0
290
     0
174
     0
 93
        1
 44
0.0
173
     0
291
     0
 45
0.0
1001
ACAD
1000
AcDbSavedByObjectVersion
1070
     0
  0
VISUALSTYLE
  5
35
102
{ACAD_REACTORS
330
2A
102
}
330
2A
100
AcDbVisualStyle
  2
Dim
 70
    11
 71
     2
 72
     2
 73
     0
 90
        0
 40
-0.6
 41
-30.0
 62
     5
 63
     7
 74
     1
 91
        4
 64
     7
 65
   257
 75
     1
175
     1
 42
1.0
 92
        8
 66
     7
 43
1.0
 76
     1
 77
     6
 78
     2
 67
     7
 79
     5
170
     0
171
     0
290
     0
174
     0
 93
        1
 44
-50.0
173
     0
291
     1
 45
0.0
1001
ACAD
1000
AcDbSavedByObjectVersion
1070
     0
  0
VISUALSTYLE
  5
39
102
{ACAD_REACTORS
330
2A
102
}
330
2A
100
AcDbVisualStyle
  2
Facepattern
 70
    15
 71
     2
 72
     2
 73
     0
 90
        0
 40
-0.6
 41
-30.0
 62
     5
 63
     7
 74
     1
 91
        4
 64
     7
 65
   257
 75
     1
175
     1
 42
1.0
 92
        8
 66
     7
 43
1.0
 76
     1
 77
     6
 78
     2
 67
     7
 79
     5
170
     0
171
     0
290
     0
174
     0
 93
        1
 44
0.0
173
     0
291
     1
 45
0.0
1001
ACAD
1000
AcDbSavedByObjectVersion
1070
     0
  0
VISUALSTYLE
  5
2B
102
{ACAD_REACTORS
330
2A
102
}
330
2A
100
AcDbVisualStyle
  2
Flat
 70
     0
 71
     2
 72
     1
 73
     1
 90
        2
 40
-0.6
 41
30.0
 62
     5
 63
     7
 74
     0
 91
        4
 64
     7
 65
   257
 75
     1
175
     1
 42
1.0
 92
        8
 66
     7
 43
1.0
 76
     1
 77
     6
 78
     2
 67
     7
 79
     5
170
     0
171
     0
290
     0
174
     0
 93
       13
 44
0.0
173
     0
291
     1
 45
0.0
1001
ACAD
1000
AcDbSavedByObjectVersion
1070
     0
  0
VISUALSTYLE
  5
2C
102
{ACAD_REACTORS
330
2A
102
}
330
2A
100
AcDbVisualStyle
  2
FlatWithEdges
 70
     1
 71
     2
 72
     1
 73
     1
 90
        2
 40
-0.6
 41
30.0
 62
     5
 63
     7
 74
     1
 91
        4
 64
     7
 65
   257
 75
     1
175
     1
 42
1.0
 92
        0
 66
   257
 43
1.0
 76
     1
 77
     6
 78
     2
 67
     7
 79
     5
170
     0
171
     0
290
     0
174
     0
 93
       13
 44
0.0
173
     0
291
     1
 45
0.0
1001
ACAD
1000
AcDbSavedByObjectVersion
1070
     0
  0
VISUALSTYLE
  5
2D
102
{ACAD_REACTORS
330
2A
102
}
330
2A
100
AcDbVisualStyle
  2
Gouraud
 70
     2
 71
     2
 72
     2
 73
     1
 90
        2
 40
-0.6
 41
30.0
 62
     5
 63
     7
 74
     0
 91
        4
 64
     7
 65
   257
 75
     1
175
     1
 42
1.0
 92
        0
 66
     7
 43
1.0
 76
     1
 77
     6
 78
     2
 67
     7
 79
     5
170
     0
171
     0
290
     0
174
     0
 93
       13
 44
0.0
173
     0
291
     1
 45
0.0
1001
ACAD
1000
AcDbSavedByObjectVersion
1070
     0
  0
VISUALSTYLE
  5
2E
102
{ACAD_REACTORS
330
2A
102
}
330
2A
100
AcDbVisualStyle
  2
GouraudWithEdges
 70
     3
 71
     2
 72
     2
 73
     1
 90
        2
 40
-0.6
 41
30.0
 62
     5
 63
     7
 74
     1
 91
        4
 64
     7
 65
   257
 75
     1
175
     1
 42
1.0
 92
        0
 66
   257
 43
1.0
 76
     1
 77
     6
 78
     2
 67
     7
 79
     5
170
     0
171
     0
290
     0
174
     0
 93
       13
 44
0.0
173
     0
291
     1
 45
0.0
1001
ACAD
1000
AcDbSavedByObjectVersion
1070
     0
  0
VISUALSTYLE
  5
38
102
{ACAD_REACTORS
330
2A
102
}
330
2A
100
AcDbVisualStyle
  2
Linepattern
 70
    14
 71
     2
 72
     2
 73
     0
 90
        0
 40
-0.6
 41
-30.0
 62
     5
 63
     7
 74
     1
 91
        4
 64
     7
 65
   257
 75
     7
175
     7
 42
1.0
 92
        8
 66
     7
 43
1.0
 76
     1
 77
     6
 78
     2
 67
     7
 79
     5
170
     0
171
     0
290
     0
174
     0
 93
        1
 44
0.0
173
     0
291
     1
 45
0.0
1001
ACAD
1000
AcDbSavedByObjectVersion
1070
     0
  0
VISUALSTYLE
  5
33
102
{ACAD_REACTORS
330
2A
102
}
330
2A
100
AcDbVisualStyle
  2
Realistic
 70
     8
 71
     2
 72
     2
 73
     0
 90
        0
 40
-0.6
 41
-30.0
 62
     5
 63
     7
 74
     1
 91
        0
 64
     7
 65
   257
 75
     1
175
     1
 42
1.0
 92
        8
 66
     8
 43
1.0
 76
     1
 77
     6
 78
     2
 67
     7
 79
     5
170
     0
171
     0
290
     0
174
     0
 93
       13
 44
0.0
173
     0
291
     0
 45
0.0
1001
ACAD
1000
AcDbSavedByObjectVersion
1070
     0
  0
VISUALSTYLE
  5
37
102
{ACAD_REACTORS
330
2A
102
}
330
2A
100
AcDbVisualStyle
  2
Thicken
 70
    13
 71
     2
 72
     2
 73
     0
 90
        0
 40
-0.6
 41
-30.0
 62
     5
 63
     7
 74
     1
 91
        4
 64
     7
 65
   257
 75
     1
175
     1
 42
1.0
 92
       12
 66
     7
 43
1.0
 76
     1
 77
     6
 78
     2
 67
     7
 79
     5
170
     0
171
     0
290
     0
174
     0
 93
        1
 44
0.0
173
     0
291
     1
 45
0.0
1001
ACAD
1000
AcDbSavedByObjectVersion
1070
     0
  0
ENDSEC
  0
EOF
